<?xml version="1.0" encoding="iso-8859-1"?>
<!-- Generator: Adobe Illustrator 27.2.0, SVG Export Plug-In . SVG Version: 6.00 Build 0)  -->
<svg version="1.1" xmlns="http://www.w3.org/2000/svg" xmlns:xlink="http://www.w3.org/1999/xlink" x="0px" y="0px"
	 width="234.77777px" height="159.55556px" viewBox="0 0 234.77777 159.55556" enable-background="new 0 0 234.77777 159.55556"
	 xml:space="preserve">
<g id="Layer_1">
</g>
<g id="Layer_2">
	<path fill="#FFFFFF" stroke="#231F20" stroke-miterlimit="10" d="M221.36955,101.51487l0.00475,0.00475l-0.07588,0.14223
		c-0.51678,1.09998-1.08102,2.18574-1.67844,3.25728l-0.03317,0.06638c-0.00475,0-0.00475,0.00475-0.00475,0.00475
		c-4.99255,8.94686-12.49809,17.064-21.94751,23.96261c-18.30627,13.37051-43.88565,22.17514-72.5232,23.57381
		c-2.66462,0.13277-5.35768,0.19916-8.07445,0.19916c-47.29462,0-87.5816-20.14113-102.88655-48.35668
		c-0.00475-0.00949-0.00949-0.01898-0.01424-0.02373l-0.36032-0.68275c-0.03794-0.06635-0.07588-0.13748-0.10907-0.20862
		c-0.20387-0.38404-0.39825-0.76809-0.58792-1.15688c-3.57969-7.26842-5.5189-15.03944-5.5189-23.11391
		c0-40.6141,49.01572-73.54254,109.477-73.54254s109.47697,32.92844,109.47697,73.54254
		C226.51387,86.96851,224.71214,94.46928,221.36955,101.51487z"/>
	<linearGradient id="SVGID_1_" gradientUnits="userSpaceOnUse" x1="110.81002" y1="23.14045" x2="118.51373" y2="92.47379">
		<stop  offset="0" style="stop-color:#BE1E2D"/>
		<stop  offset="1" style="stop-color:#771117"/>
	</linearGradient>
	<path fill="url(#SVGID_1_)" stroke="#231F20" stroke-miterlimit="10" d="M211.52408,79.18326
		c0,6.71928-1.55502,13.19303-4.43994,19.27393c-0.01634,0.04501-0.03682,0.08595-0.0614,0.12685
		c-0.44601,0.94938-0.93301,1.88647-1.44862,2.81129l-0.02863,0.0573c-0.00409,0-0.00409,0.0041-0.00409,0.0041
		c-0.00404-0.0041-0.01224-0.00819-0.01634-0.01229c-5.33205-3.49466-12.91068-7.10392-21.83563-10.43901
		c-1.07617-0.40102-2.17288-0.80205-3.28598-1.1949c-12.00214-4.24353-26.09955-7.951-40.31152-10.28761
		c-4.53406-0.74477-9.07632-1.3504-13.56947-1.78826c-5.38932-0.52788-10.70092-0.81433-15.82834-0.81433
		c-36.10892,0-64.72925,9.82111-80.50848,20.21102c-1.01077,0.66292-1.96831,1.33404-2.87268,2.00103
		c-3.08955-6.27321-4.76324-12.98021-4.76324-19.94911c0-35.05315,42.30441-63.47297,94.48721-63.47297
		S211.52408,44.13011,211.52408,79.18326z"/>
	
		<linearGradient id="SVGID_00000018196952937104941610000000603480769398289034_" gradientUnits="userSpaceOnUse" x1="117.31738" y1="28.28535" x2="142.50256" y2="92.87794">
		<stop  offset="0" style="stop-color:#F7941D"/>
		<stop  offset="1" style="stop-color:#F15A29"/>
	</linearGradient>
	
		<ellipse fill="url(#SVGID_00000018196952937104941610000000603480769398289034_)" stroke="#10113E" stroke-width="0.75" stroke-miterlimit="10" cx="129.58965" cy="59.76009" rx="35.68909" ry="27.31663"/>
	
		<linearGradient id="SVGID_00000159468028446517250750000005955228421049294222_" gradientUnits="userSpaceOnUse" x1="84.12955" y1="39.84742" x2="77.31474" y2="100.58816">
		<stop  offset="0" style="stop-color:#FFD98D"/>
		<stop  offset="1" style="stop-color:#AD8030"/>
	</linearGradient>
	
		<path fill="url(#SVGID_00000159468028446517250750000005955228421049294222_)" stroke="#231F20" stroke-width="0.75" stroke-miterlimit="10" d="
		M127.42802,79.92255l-2.7887-6.73969l-2.30372-1.33373h-2.54621l-1.77001-1.69747l-8.53608-8.24488l-4.91055-2.36434
		l-2.36434,2.54621l-4.36494-3.69807l-3.09183-6.48678c0,0-8.25417-10.18484-8.49202-10.36672c-0.23785-0.18187-3.1478,0-3.1478,0
		L78.565,36.08091l-3.81932-2.18246l-3.63744-1.45498h-1.63685l-1.63686,3.2737l-2.90995,5.09242l1.45498,4.36494l-2.36434,1.63685
		l-3.63745-1.63685v0.90936l-3.63744,4.54681L53.6485,56.4506l-3.2737,0.18187l-8.0066,6.00179l-5.27008,6.54741
		c0,0-2.72808,3.84016-2.0006,4.19348c0.40909,0.19868,1.57238,3.30339,2.64254,5.93199
		c-0.00539,1.19608-2.07906,2.95479-1.73318,4.0151l0.85084,2.36433l-1.63685,3.2737c0,0-1.21458,0.59108-2.12394,1.31857
		c-0.90936,0.72749-2.90996,4.36494-2.90996,4.36494v2.48594l2.72808,2.78835l71.29393-10.91234L127.42802,79.92255z"/>
	<path fill="#58595B" stroke="#231F20" stroke-width="0.75" stroke-miterlimit="10" d="M150.70691,120.68152
		c2.57805-2.54531,2.35706-4.56273,0.72021-5.65122c-1.63686-1.09259-14.18739-2.9095-14.18739-2.9095l-10.18531-1.27267
		c0,0-17.18284-8.37247-22.36755-11.09785c-5.61031-3.91207-16.92503-5.78625-28.69808-6.42461
		c-13.02115-0.70795-26.59882,0.09411-33.625,1.33401c0,0-5.92951,1.58366-10.64362,4.03893
		c-1.30539,0.67931-2.51667,1.42407-3.4824,2.22205c-0.0041-0.00819-0.00819-0.01639-0.01229-0.02048l-0.31098-0.58926
		c-0.03274-0.05727-0.06549-0.11867-0.09414-0.18005c1.05168-0.70793,2.15246-1.39131,3.29825-2.04607
		c3.40055-1.95193,7.1776-3.67882,11.24518-5.23792c2.37343-1.22354,45.83998-16.73271,65.66634-8.0042
		c1.07623,0.45422,2.21793,0.90437,3.40056,1.33813c10.1403,3.74428,23.33331,6.66606,23.33331,6.66606
		c11.45796,0.84708,32.19278,0.54426,37.08694,3.45376c0,0,3.53151,0.91663,7.07121,3.4824
		c0.83481,0.60563,1.66956,1.30539,2.45937,2.10336c2.533,2.56167,4.59955,6.17093,4.66908,11.14694l0.54837,9.10498
		c-15.79973,11.5398-37.87674,19.13888-62.59319,20.34605C128.88771,140.43013,150.70691,120.68152,150.70691,120.68152z"/>
	
		<linearGradient id="SVGID_00000009562093913021258840000010387974997253600641_" gradientUnits="userSpaceOnUse" x1="177.92322" y1="50.37061" x2="171.1084" y2="111.11135">
		<stop  offset="0" style="stop-color:#FFD98D"/>
		<stop  offset="1" style="stop-color:#836434"/>
	</linearGradient>
	
		<path fill="url(#SVGID_00000009562093913021258840000010387974997253600641_)" stroke="#231F20" stroke-width="0.75" stroke-miterlimit="10" d="
		M207.08823,98.46128l-0.06549,0.12276l-1.44862,2.81129l-0.02863,0.0573l-0.02043-0.00819l-22.45354-7.52132l-3.12225-1.04758
		l-39.85735-13.35261l8.91676-5.75353l5.33612-4.44404l7.88554-2.68853l3.51108-6.79292c0,0,2.90944-1.45272,4.60768-1.45272
		s6.95258,3.31464,6.95258,3.31464l6.14223,7.61954l3.70744,5.38115l2.81543,4.08804l4.14938,6.02769l8.08604,4.36629
		l4.88193,9.26868L207.08823,98.46128z"/>
	
		<linearGradient id="SVGID_00000067230717190663106810000003484822614218604936_" gradientUnits="userSpaceOnUse" x1="117.10748" y1="84.9875" x2="114.88525" y2="134.98749">
		<stop  offset="0" style="stop-color:#9E926D"/>
		<stop  offset="1" style="stop-color:#70623A"/>
	</linearGradient>
	
		<path fill="url(#SVGID_00000067230717190663106810000003484822614218604936_)" stroke="#231F20" stroke-width="0.75" stroke-miterlimit="10" d="
		M205.5414,101.45672c-4.30898,7.72184-10.78683,14.72756-18.94243,20.68159l-0.54837-9.10498
		c-0.06953-4.97601-2.13608-8.58527-4.66908-11.14694c-0.78981-0.79797-1.62456-1.49773-2.45937-2.10336
		c-3.5397-2.56577-7.07121-3.4824-7.07121-3.4824c-4.89417-2.9095-25.62898-2.60668-37.08694-3.45376
		c0,0-13.19301-2.92178-23.33331-6.66606c-1.18263-0.43377-2.32433-0.88392-3.40056-1.33813
		c-19.82635-8.72852-63.29291,6.78065-65.66634,8.0042c-4.06757,1.5591-7.84462,3.28599-11.24518,5.23792
		c-1.14579,0.65475-2.24657,1.33813-3.29825,2.04607c-0.17596-0.33147-0.34373-0.66293-0.50742-0.99848
		c0.90437-0.66699,1.86191-1.33811,2.87268-2.00103c15.77924-10.38992,44.39957-20.21102,80.50848-20.21102
		c5.12742,0,10.43902,0.28645,15.82834,0.81433c4.49315,0.43786,9.03542,1.04349,13.56947,1.78826
		c14.21198,2.33661,28.30939,6.04408,40.31152,10.28761c1.1131,0.39285,2.20981,0.79388,3.28598,1.1949
		c8.92496,3.33509,16.50359,6.94435,21.83563,10.43901C205.52916,101.44852,205.53735,101.45262,205.5414,101.45672z"/>
	<line fill="none" stroke="#231F20" stroke-miterlimit="10" x1="186.59895" y1="122.14241" x2="186.59895" y2="122.13832"/>
	<path fill="#808285" stroke="#231F20" stroke-width="0.75" stroke-miterlimit="10" d="M180.77722,104.72864l7.51738-35.40446
		h-4.84991l-5.09244,34.29385C178.35225,103.61802,177.94316,104.79015,180.77722,104.72864z"/>
	<polygon fill="#58595B" points="185.84615,79.86666 182.08443,79.86656 182.84987,74.6677 186.83585,75.12344 	"/>
	<path fill="#FFF200" stroke="#231F20" stroke-width="0.75" stroke-miterlimit="10" d="M198.66389,79.48234
		c-0.69156,0.08592-1.52226,0.02865-2.42661-0.09411l-25.007-2.36526c-1.09259-0.09002-4.575-0.43377-2.00104-4.00211
		c2.73761-3.79339,13.00476-18.71329,18.36954-24.36861c0.51971-0.54833,0.96576-0.73248,1.32994-0.73248
		c0.3192,0,0.57291,0.13912,0.76115,0.29872c0.23734,0.20051,0.36418,0.43377,0.36418,0.43377l10.00116,26.36966
		C201.22147,78.18105,200.38666,79.26954,198.66389,79.48234z"/>
	<path fill="#867E31" stroke="#231F20" stroke-width="0.75" stroke-miterlimit="10" d="M198.66389,79.48234
		c1.72276-0.2128,2.55757-1.30129,1.39133-4.46043l-10.00116-26.36966c0,0-0.12685-0.23325-0.36418-0.43377
		c-0.18825-0.1596-0.44196-0.29872-0.76115-0.29872h1.60004c0.72839,0,1.12534,0.73248,1.12534,0.73248l10.00525,26.36966
		C203.14885,79.05267,201.37292,79.71559,198.66389,79.48234z"/>
	<path fill="#231F20" d="M117.0369,8.85598c-57.82174,0-104.69297,31.48891-104.69297,70.32728
		c0,38.84248,46.87123,70.3273,104.69297,70.3273c57.81763,0,104.69291-31.48483,104.69291-70.3273
		C221.72981,40.34489,174.85454,8.85598,117.0369,8.85598z M207.02274,98.58404c-0.44601,0.94938-0.93301,1.88647-1.44862,2.81129
		l-0.02863,0.0573c-0.00409,0-0.00409,0.0041-0.00409,0.0041c-4.30898,7.72184-10.78683,14.72756-18.94243,20.68159
		c-15.79973,11.5398-37.87674,19.13888-62.59319,20.34605c-2.29977,0.11459-4.6241,0.17189-6.96888,0.17189
		c-40.81896,0-75.58977-17.38338-88.79914-41.7356c-0.0041-0.00819-0.00819-0.01639-0.01229-0.02048l-0.31098-0.58926
		c-0.03274-0.05727-0.06549-0.11867-0.09414-0.18005c-0.17596-0.33147-0.34373-0.66293-0.50742-0.99848
		c-3.08955-6.27321-4.76324-12.98021-4.76324-19.94911c0-35.05315,42.30441-63.47297,94.48721-63.47297
		s94.48717,28.41982,94.48717,63.47297c0,6.71928-1.55502,13.19303-4.43994,19.27393l0.00409,0.0041L207.02274,98.58404z"/>
	<path fill="none" stroke="#231F20" stroke-miterlimit="10" d="M207.08414,98.45718l0.00409,0.0041l-0.06549,0.12276
		c-0.44601,0.94938-0.93301,1.88647-1.44862,2.81129l-0.02863,0.0573c-0.00409,0-0.00409,0.0041-0.00409,0.0041
		c-4.30898,7.72184-10.78683,14.72756-18.94243,20.68159c-15.79973,11.5398-37.87674,19.13888-62.59319,20.34605
		c-2.29977,0.11459-4.6241,0.17189-6.96888,0.17189c-40.81896,0-75.58977-17.38338-88.79914-41.7356
		c-0.0041-0.00819-0.00819-0.01639-0.01229-0.02048l-0.31098-0.58926c-0.03274-0.05727-0.06549-0.11867-0.09414-0.18005
		c-0.17596-0.33147-0.34373-0.66293-0.50742-0.99848c-3.08955-6.27321-4.76324-12.98021-4.76324-19.94911
		c0-35.05315,42.30441-63.47297,94.48721-63.47297s94.48717,28.41982,94.48717,63.47297
		C211.52408,85.90254,209.96906,92.37629,207.08414,98.45718z"/>
	
		<linearGradient id="SVGID_00000015330145634493751330000012551978663623435964_" gradientUnits="userSpaceOnUse" x1="91.56576" y1="83.8523" x2="89.34354" y2="133.85231">
		<stop  offset="0" style="stop-color:#9E926D"/>
		<stop  offset="1" style="stop-color:#806B38"/>
	</linearGradient>
	
		<path fill="url(#SVGID_00000015330145634493751330000012551978663623435964_)" stroke="#231F20" stroke-width="0.75" stroke-miterlimit="10" d="
		M150.70691,120.68152c0,0-21.8192,19.74861-26.70113,21.80284c-2.29977,0.11459-4.6241,0.17189-6.96888,0.17189
		c-40.81896,0-75.58977-17.38338-88.79914-41.7356c0.96574-0.79797,2.17701-1.54274,3.4824-2.22205
		c4.71411-2.45528,10.64362-4.03893,10.64362-4.03893c7.02618-1.2399,20.60385-2.04196,33.625-1.33401
		c11.77306,0.63837,23.08777,2.51254,28.69808,6.42461c5.18472,2.72537,22.36755,11.09785,22.36755,11.09785l10.18531,1.27267
		c0,0,12.55054,1.81691,14.18739,2.9095C153.06396,116.11879,153.28496,118.13621,150.70691,120.68152z"/>
	<g>
		<path fill="#FFFFFF" d="M44.38135,121.67519c0.0498,0.03809,0.07715,0.08496,0.08008,0.14062
			c0.00293,0.05469-0.01758,0.10352-0.05957,0.14551c-0.04297,0.04297-0.0957,0.06641-0.16016,0.07031
			c-0.06348,0.00488-0.11914-0.01074-0.16602-0.0459l-0.98438-0.74512l-3.51465,3.49316
			c-0.04297,0.04199-0.09473,0.06641-0.15723,0.07227s-0.11816-0.00977-0.16602-0.04688
			c-0.04883-0.03711-0.07422-0.08301-0.07715-0.1377c-0.00293-0.05566,0.0166-0.10449,0.05859-0.14648l3.51562-3.49316
			l-1.03906-0.78711c-0.04688-0.03516-0.07227-0.08105-0.07715-0.1377s0.01465-0.10645,0.05664-0.14844
			c0.03027-0.02539,0.06445-0.04395,0.10352-0.05762c0.03809-0.0127,0.07812-0.0166,0.11816-0.00977
			c0.03906,0.00586,0.07422,0.02051,0.10449,0.04395L44.38135,121.67519z"/>
		<path fill="#FFFFFF" d="M49.72705,125.49648c0.0752,0.14844,0.11816,0.30566,0.12891,0.4707s-0.0127,0.33008-0.07031,0.49414
			s-0.14746,0.31738-0.26855,0.46094c-0.18262,0.21484-0.41016,0.37402-0.68359,0.47754
			c-0.27344,0.10449-0.55078,0.1416-0.83105,0.1123c-0.26758-0.02539-0.50586-0.10547-0.71484-0.23828l-0.54102-0.34668
			l0.29785,2.79199c0.00586,0.05371-0.0127,0.10352-0.05469,0.14941s-0.09375,0.07324-0.15625,0.08105
			s-0.11719-0.00586-0.16602-0.03906c-0.04785-0.0332-0.0752-0.07715-0.08008-0.13086l-0.30273-2.87793l-1.38965,1.62109
			c-0.03906,0.04492-0.09082,0.07227-0.1543,0.08203s-0.12012-0.00195-0.16895-0.0332
			c-0.0498-0.03223-0.0791-0.0752-0.08789-0.13184c-0.00879-0.05566,0.00586-0.10645,0.04492-0.15137l3.36426-3.92188
			c0.01074-0.00781,0.02246-0.01855,0.03516-0.03027c0.00195-0.00391,0.00684-0.00684,0.01367-0.00977
			s0.01465-0.00684,0.02246-0.01172c0.00195-0.00391,0.00684-0.00684,0.0127-0.00781
			c0.01562-0.00977,0.03418-0.01562,0.05566-0.0166c0.00586-0.00195,0.01172-0.00293,0.01758-0.00391
			c0.02246-0.00586,0.04395-0.00684,0.0625-0.00488c0.00977,0.00098,0.01562,0.00195,0.01953,0.00488
			c0.00586-0.00195,0.01074-0.00098,0.01367,0.00098c0.00977,0.00098,0.01758,0.00391,0.02441,0.00879
			c0.00586-0.00195,0.0127,0,0.01953,0.00391c0.00391,0.00293,0.01074,0.00684,0.02148,0.01367l1.03906,0.66602
			C49.4624,125.11562,49.62158,125.28847,49.72705,125.49648z M49.16162,126.69472c0.13184-0.15137,0.20996-0.31738,0.2334-0.49902
			c0.02344-0.18066-0.00488-0.35254-0.08496-0.51465c-0.0752-0.14746-0.18848-0.27051-0.33984-0.36816l-0.7373-0.47168
			c-0.0625-0.03516-0.12598-0.0332-0.19043,0.00586l-1.32812,1.54688l0.85938,0.5498
			c0.14844,0.0957,0.31934,0.15234,0.51172,0.16992c0.13086,0.01367,0.26172,0.00684,0.3916-0.02051s0.25391-0.0752,0.37402-0.1416
			S49.07471,126.80019,49.16162,126.69472z"/>
		<path fill="#FFFFFF" d="M54.46143,134.02382c-0.01367,0.06055-0.04883,0.10742-0.10547,0.1416
			c-0.05664,0.03516-0.11523,0.04688-0.17578,0.03516c-0.06152-0.01074-0.10742-0.04102-0.13867-0.08887
			s-0.03809-0.10156-0.02148-0.15918l0.68848-2.3623l-1.34668-0.72656l-2.19531,1.54883
			c-0.05469,0.03809-0.1123,0.05566-0.17578,0.05371c-0.0625-0.00293-0.11328-0.02539-0.15234-0.06836
			s-0.05273-0.09277-0.04004-0.15137c0.01172-0.05859,0.04492-0.10645,0.09961-0.14453l2.06445-1.4541l0.39355-0.27832
			l2.19824-1.55469c0.04688-0.0332,0.09668-0.05078,0.15137-0.05566c0.00977,0.00098,0.01758,0.00098,0.02441,0.00195
			c0.00684,0.00195,0.0127,0.00098,0.01855-0.00098c0.00684,0.00488,0.01367,0.00586,0.01953,0.00391
			c0.00391,0.00195,0.00684,0.00391,0.01074,0.00586c0.00977,0,0.01758,0.00195,0.02539,0.00684
			c0.00684,0.00391,0.01465,0.00781,0.02246,0.01172c0.00684,0.00391,0.01465,0.00781,0.02148,0.01172
			c0.00781,0.00391,0.01367,0.00977,0.01953,0.01758c0.00391,0.00195,0.00879,0.00488,0.0166,0.00879
			c-0.00195,0.00391-0.00098,0.00684,0.00293,0.00879l0.00488,0.00293c0.00586,0.00781,0.00977,0.01758,0.01367,0.0293
			l0.00488,0.00293c0.01953,0.04395,0.02246,0.09082,0.00977,0.1416l-0.69141,2.36816l-0.12207,0.4248L54.46143,134.02382z
			 M53.75537,130.58534l1.0752,0.58008l0.48633-1.68555L53.75537,130.58534z"/>
		<path fill="#FFFFFF" d="M64.65186,133.05995c0.06152-0.01953,0.11816-0.0166,0.17285,0.00684
			c0.05371,0.02344,0.08887,0.0625,0.10645,0.11719c0.01758,0.05371,0.00977,0.10645-0.02148,0.15723l-2.7373,4.38281
			c-0.02344,0.04102-0.06055,0.07227-0.1123,0.0957c-0.01855,0.01074-0.03711,0.0166-0.05566,0.01758
			c-0.05762,0.01562-0.1123,0.00488-0.16504-0.03223c-0.0293-0.01758-0.05078-0.04102-0.06543-0.07031
			c-0.01953-0.02734-0.0332-0.05859-0.04004-0.09473l-0.98828-5.4873l-2.4043,3.86426
			c-0.0332,0.05469-0.08105,0.09082-0.14258,0.11035c-0.06055,0.01953-0.11914,0.0166-0.1748-0.00879
			c-0.05566-0.02441-0.0918-0.06348-0.10645-0.11621c-0.01562-0.05371-0.00684-0.10742,0.02637-0.16211l2.72949-4.37988
			c0.02148-0.02734,0.0459-0.05078,0.07324-0.07129s0.05664-0.03516,0.08789-0.04395c0.02051-0.00488,0.04102-0.00488,0.0625,0
			c0.03223,0,0.06152,0.00586,0.08789,0.01758c0.07324,0.0332,0.11133,0.08691,0.11426,0.16211
			c-0.00098,0.00391,0,0.00684,0.00391,0.00879c0.00195,0.00488,0.00195,0.00977,0,0.01367l0.99219,5.49609l2.41699-3.87891
			C64.54346,133.11366,64.59033,133.07851,64.65186,133.05995z"/>
		<path fill="#FFFFFF" d="M69.19092,138.06874c0.07812,0.32227,0.03125,0.64062-0.13867,0.95703
			c-0.1709,0.31543-0.42578,0.55762-0.76562,0.72559c-0.0498,0.02637-0.10059,0.04785-0.15234,0.06543
			c-0.1416,0.05566-0.28711,0.0918-0.43652,0.10938c-0.0459,0.00488-0.10059,0.00586-0.16211,0.00391
			c-0.06152-0.00293-0.12305-0.00684-0.18359-0.01367c-0.05957-0.00684-0.11621-0.01367-0.16895-0.02246
			c-0.05371-0.00781-0.09473-0.01562-0.12305-0.02148l-0.0498-0.01172l-0.2207-0.0752l-0.01172-0.00391l-0.30078-0.11133
			c-0.05566-0.02051-0.09277-0.05664-0.11133-0.1084c-0.01855-0.05273-0.01367-0.10449,0.01465-0.15723
			s0.07129-0.09082,0.12988-0.11523c0.05762-0.02344,0.11621-0.02441,0.17578-0.00195l0.3125,0.11523
			c0.04492,0.0127,0.08105,0.02344,0.1084,0.0332c0.02734,0.01074,0.05273,0.01953,0.07422,0.02734
			c0.02148,0.00879,0.03418,0.0127,0.03809,0.01465c0.14844,0.0459,0.30664,0.05957,0.47559,0.04004
			c0.19629-0.02148,0.38086-0.08984,0.55566-0.20312c0.17383-0.11426,0.30859-0.25879,0.40527-0.43555
			s0.1377-0.35547,0.12207-0.53711s-0.08008-0.34375-0.19336-0.48438c-0.0918-0.11523-0.20898-0.2041-0.35156-0.26562
			c-0.01953-0.00781-0.03906-0.01465-0.05957-0.02148c0.02051,0.00684,0.04004,0.01172,0.06152,0.01562
			c-0.20996-0.08691-0.38184-0.21387-0.5166-0.38086c-0.01367-0.01367-0.02734-0.03027-0.04199-0.0498
			c-0.04688-0.06641-0.08691-0.14062-0.12012-0.21973l-0.00586-0.00293c-0.00781-0.01562-0.01758-0.03711-0.03027-0.06445
			l0.00586,0.00195l-0.00586-0.00195c0.00195-0.00391,0.00098-0.00879-0.00098-0.01465l-0.00781-0.01562
			c-0.01074-0.03125-0.02148-0.06934-0.03125-0.11328c-0.07422-0.32129-0.02734-0.63965,0.13867-0.95703
			c0.1709-0.31641,0.42773-0.55762,0.77148-0.72363c0.07031-0.03223,0.16699-0.06738,0.29102-0.10547
			c0.12305-0.03809,0.22266-0.06055,0.29688-0.06934c0.23926-0.0293,0.46875-0.00684,0.68848,0.06543
			c0.01172,0.00391,0.01953,0.00684,0.02344,0.00781l0.2002,0.0752l0.0127,0.00391c0.04199,0.0293,0.07031,0.06641,0.08203,0.1123
			c0.0127,0.04492,0.00586,0.0918-0.02148,0.14062c-0.01562,0.03027-0.03809,0.05566-0.06543,0.07715
			c-0.02832,0.02148-0.05957,0.03613-0.09473,0.0459s-0.06836,0.01074-0.10156,0.00293c-0.01367,0-0.02344-0.00195-0.03223-0.00488
			l-0.01172-0.00391l-0.1416-0.05273c-0.01953-0.00684-0.03906-0.01465-0.05859-0.02148
			c-0.15332-0.04785-0.31152-0.06152-0.47559-0.04102c-0.20117,0.02539-0.38867,0.09277-0.5625,0.20508
			c-0.17285,0.11133-0.30762,0.25586-0.40234,0.43359c-0.09473,0.17676-0.13379,0.35742-0.11914,0.54102
			s0.07715,0.34375,0.18848,0.47949c0.03906,0.05078,0.08203,0.09277,0.12695,0.12793l0.00586,0.00195
			c0.07031,0.05273,0.16309,0.11035,0.2793,0.1709c0.02734,0.01074,0.05078,0.02148,0.06836,0.03223l0.00586,0.00195
			c0.14941,0.08301,0.27539,0.18848,0.37988,0.31738c0.01562,0.01855,0.02832,0.03711,0.04004,0.05469
			c0.06641,0.08789,0.11816,0.18359,0.15527,0.28809c0.00293,0.00488,0.00586,0.00879,0.00977,0.00977
			C69.16846,137.98573,69.1792,138.02773,69.19092,138.06874z"/>
		<path fill="#FFFFFF" d="M76.33838,137.3539c0.16895,0.19043,0.27148,0.41211,0.30664,0.66699
			c0.03418,0.25488-0.00879,0.50977-0.12988,0.76465s-0.2998,0.46777-0.53613,0.64062
			c-0.23633,0.17188-0.49609,0.28027-0.77832,0.3252c-0.26074,0.04785-0.50977,0.03418-0.74609-0.03906l-0.96777-0.30273
			l-1.00977,2.13867c-0.02637,0.05469-0.06836,0.09473-0.12695,0.12012c-0.05859,0.02637-0.11621,0.03027-0.17188,0.0127
			c-0.05664-0.01758-0.0957-0.05176-0.11914-0.10352s-0.02246-0.10449,0.00293-0.1582l2.20898-4.6709
			c0.00781-0.01074,0.0166-0.02344,0.02539-0.03906c0.00098-0.00391,0.00488-0.00781,0.01074-0.0127s0.0127-0.01074,0.01855-0.01758
			c0.00586-0.00293,0.00879-0.00586,0.00977-0.00977c0.01367-0.01367,0.0293-0.02441,0.0498-0.03125
			c0.00488-0.00293,0.01074-0.00586,0.01562-0.00879c0.02051-0.01074,0.04102-0.01855,0.05957-0.02148
			c0.00879-0.00098,0.01562-0.00195,0.01953,0c0.00586-0.00293,0.00977-0.00391,0.01367-0.00293
			c0.00977-0.00098,0.01855-0.00098,0.02637,0.00195c0.00488-0.00293,0.01172-0.00293,0.01953-0.00098
			c0.00879,0.00293,0.0166,0.00586,0.02441,0.00781l1.17871,0.36816C75.98291,137.05605,76.18115,137.18007,76.33838,137.3539z
			 M75.72607,139.11464c0.16797-0.12305,0.2959-0.27441,0.38379-0.45605c0.08691-0.18066,0.11816-0.3623,0.09277-0.54297
			c-0.02441-0.18066-0.09766-0.33789-0.21777-0.47363c-0.11133-0.12305-0.25293-0.21191-0.42578-0.26562l-0.83496-0.26074
			c-0.06934-0.0166-0.13086,0.00195-0.18262,0.05664l-0.87207,1.84277l0.97461,0.30371
			c0.16797,0.05273,0.3457,0.06152,0.53223,0.02637C75.37451,139.31386,75.55811,139.23671,75.72607,139.11464z"/>
		<path fill="#FFFFFF" d="M81.70166,139.04335c0.48633-0.13281,0.96191-0.1416,1.42676-0.02734
			c0.46484,0.11523,0.84668,0.33594,1.14648,0.66309s0.48438,0.71777,0.55371,1.17285s0.00977,0.91699-0.17676,1.38574
			c-0.1875,0.46777-0.47559,0.87305-0.86523,1.21484c-0.38867,0.3418-0.82715,0.5791-1.31348,0.71191
			c-0.4873,0.13184-0.96289,0.14062-1.42773,0.02637c-0.46484-0.11523-0.84668-0.33594-1.14648-0.66309
			c-0.2998-0.32617-0.48438-0.71777-0.55273-1.17285c-0.06934-0.45508-0.01074-0.91699,0.17676-1.38477
			c0.18652-0.46875,0.47461-0.87402,0.86426-1.21582S81.21436,139.17519,81.70166,139.04335z M83.53369,143.17714
			c0.33105-0.28809,0.57617-0.63379,0.73535-1.03418c0.16016-0.40137,0.21094-0.79395,0.15234-1.17871
			s-0.2168-0.71777-0.47363-0.99707c-0.25781-0.2793-0.58301-0.46777-0.97656-0.56445
			c-0.39258-0.09766-0.79688-0.08887-1.21191,0.02441c-0.41504,0.1123-0.78809,0.31348-1.11914,0.60254
			s-0.57617,0.63379-0.73535,1.03418c-0.16016,0.40137-0.20996,0.79395-0.15234,1.17871
			c0.05859,0.38574,0.2168,0.71777,0.47461,0.99707c0.25684,0.2793,0.58301,0.46777,0.97852,0.56543s0.7998,0.08984,1.21289-0.02441
			C82.83154,143.66737,83.20264,143.4662,83.53369,143.17714z"/>
		<path fill="#FFFFFF" d="M91.37451,140.93886c0.12402,0.10938,0.22266,0.23828,0.2959,0.3877
			c0.07227,0.14941,0.1123,0.31055,0.12012,0.48438c0.00879,0.17383-0.0166,0.34961-0.07617,0.52832
			c-0.08789,0.26758-0.24023,0.50098-0.4541,0.69922c-0.21484,0.19922-0.45703,0.33789-0.72754,0.41699
			c-0.25781,0.07617-0.50879,0.0918-0.75195,0.0459l-0.63184-0.11816l1.32422,2.47656
			c0.02539,0.04785,0.02734,0.10059,0.00586,0.15918c-0.02148,0.05762-0.05957,0.10254-0.11426,0.13281
			c-0.05566,0.03125-0.11133,0.04004-0.16895,0.02734c-0.05762-0.01367-0.09863-0.04395-0.12402-0.09082l-1.36133-2.55371
			l-0.67871,2.02344c-0.01953,0.05664-0.05664,0.10156-0.1123,0.13379c-0.05469,0.0332-0.11133,0.04395-0.16895,0.0332
			s-0.10156-0.04102-0.13086-0.08887c-0.0293-0.04883-0.03418-0.10156-0.01562-0.1582l1.64648-4.89746
			c0.00586-0.01172,0.0127-0.02539,0.02051-0.04102c0.00098-0.00488,0.00391-0.00977,0.00879-0.01465
			c0.00586-0.00586,0.01074-0.01172,0.0166-0.01953c0.00098-0.00391,0.00391-0.00781,0.00879-0.01172
			c0.01074-0.01465,0.02637-0.02734,0.04492-0.03613c0.00488-0.00391,0.00977-0.00684,0.01465-0.01074
			c0.01953-0.01367,0.03906-0.02246,0.05664-0.02832c0.00879-0.00195,0.01562-0.00293,0.01953-0.00293
			c0.00488-0.00293,0.00977-0.00391,0.01367-0.00391c0.00879-0.00195,0.01758-0.00293,0.02637-0.00098
			c0.00488-0.00391,0.01074-0.00488,0.01953-0.00293c0.00391,0.00098,0.0127,0.00195,0.02441,0.00488l1.21387,0.22656
			C90.98584,140.68495,91.19775,140.78554,91.37451,140.93886z M91.30029,142.2621c0.06445-0.19043,0.07422-0.37402,0.02832-0.55078
			c-0.0459-0.17578-0.13672-0.32422-0.27148-0.44434c-0.125-0.10938-0.27637-0.18066-0.4541-0.21387l-0.86035-0.16113
			c-0.07031-0.00879-0.12891,0.0166-0.17383,0.07715l-0.65039,1.93262l1.00293,0.1875
			c0.17383,0.03223,0.35254,0.02051,0.53809-0.03516c0.12695-0.03711,0.24512-0.0918,0.35547-0.16602
			c0.10938-0.07422,0.20703-0.16504,0.29395-0.27148C91.19482,142.51015,91.2583,142.39198,91.30029,142.2621z"/>
		<path fill="#FFFFFF" d="M98.52686,141.84413c0.0625,0.00879,0.1084,0.03613,0.13867,0.08301
			c0.0293,0.04688,0.03613,0.09863,0.01953,0.15625s-0.05078,0.10449-0.10449,0.13965s-0.10938,0.04883-0.16797,0.04102
			l-1.22266-0.16699l-1.35059,4.76855c-0.0166,0.05762-0.05078,0.10352-0.10254,0.13965
			c-0.05078,0.03516-0.10742,0.04883-0.16699,0.04102c-0.06055-0.00879-0.10547-0.03613-0.13574-0.08301
			c-0.0293-0.0459-0.03613-0.09863-0.01953-0.15625l1.35059-4.76758l-1.29102-0.17676
			c-0.05859-0.00781-0.10352-0.03516-0.13477-0.08301c-0.03223-0.04688-0.03906-0.09863-0.02344-0.15625
			c0.01367-0.03711,0.03418-0.07031,0.06152-0.10059s0.06055-0.05273,0.09863-0.06738c0.03711-0.01367,0.0752-0.01855,0.1123-0.0127
			L98.52686,141.84413z"/>
		<path fill="#FFFFFF" d="M105.06299,147.79237c0.01172,0.06055-0.00195,0.11719-0.04004,0.1709
			c-0.03906,0.05469-0.08887,0.08789-0.14844,0.10156c-0.06055,0.01367-0.11426,0.00488-0.16211-0.02734
			s-0.0752-0.07812-0.08203-0.1377l-0.29785-2.44336l-1.52344-0.1377l-1.40918,2.28809
			c-0.03418,0.05664-0.08105,0.0957-0.13965,0.11816c-0.05957,0.02246-0.11523,0.02148-0.16797-0.00195
			c-0.05273-0.02441-0.08398-0.06543-0.0957-0.12402c-0.01172-0.05762,0-0.11523,0.03418-0.17188l1.32617-2.14941l0.25195-0.41016
			l1.40918-2.29492c0.03027-0.04785,0.06934-0.08496,0.11816-0.11035c0.00781-0.00293,0.01562-0.00586,0.02246-0.00781
			c0.00684-0.00098,0.01172-0.00391,0.0166-0.00781c0.00781,0.00098,0.01465-0.00098,0.01953-0.00488
			c0.00391,0.00098,0.00781,0.00098,0.0127,0.00195c0.00781-0.00391,0.0166-0.00488,0.02539-0.00488
			c0.00781,0.00098,0.0166,0.00195,0.02441,0.00293c0.00879,0,0.01758,0.00098,0.02539,0.00195
			c0.00879,0.00098,0.0166,0.00391,0.02441,0.00879c0.00391,0,0.01074,0.00098,0.01953,0.00195
			c-0.00098,0.00391,0.00098,0.00586,0.00488,0.00684h0.00684c0.00781,0.00488,0.01562,0.0127,0.02344,0.02148l0.00586,0.00098
			c0.03516,0.03223,0.05664,0.0752,0.06445,0.12598l0.29688,2.44922l0.05566,0.43848L105.06299,147.79237z M103.06104,144.90858
			l1.2168,0.10938l-0.21582-1.74023L103.06104,144.90858z"/>
		<path fill="#FFFFFF" d="M111.52393,142.88612c0.0625,0.00293,0.11133,0.02637,0.14453,0.07031
			c0.03418,0.04395,0.0459,0.09473,0.03418,0.1543c-0.01074,0.05859-0.04199,0.1084-0.0918,0.14746
			c-0.0498,0.04102-0.10449,0.05957-0.16309,0.05664l-1.2334-0.05664l-0.91602,4.87012
			c-0.01074,0.05957-0.04004,0.1084-0.08887,0.14844c-0.04785,0.04102-0.10254,0.05957-0.16309,0.05664
			s-0.1084-0.02637-0.1416-0.07031c-0.03418-0.04395-0.04492-0.09473-0.03418-0.1543l0.91602-4.87012l-1.30176-0.05957
			c-0.05859-0.00293-0.10645-0.02539-0.1416-0.07031c-0.03613-0.04395-0.04785-0.09473-0.03711-0.15332
			c0.00977-0.03809,0.02734-0.07324,0.05176-0.10645c0.02441-0.03223,0.05566-0.05762,0.0918-0.0752
			s0.07422-0.02539,0.11133-0.02344L111.52393,142.88612z"/>
		<path fill="#FFFFFF" d="M115.98877,143.04042c0.04785-0.04199,0.10254-0.0625,0.16406-0.0625
			c0.06055,0.00098,0.1084,0.02246,0.14453,0.06543c0.03516,0.04199,0.04785,0.09375,0.03906,0.15234l-0.76172,5.10352
			c-0.00879,0.06348-0.03809,0.11621-0.08594,0.1582c-0.04883,0.04199-0.10352,0.0625-0.16504,0.0625
			c-0.06055-0.00098-0.1084-0.02246-0.14355-0.06445c-0.03516-0.04297-0.04883-0.0957-0.04004-0.15918l0.76172-5.10449
			C115.91064,143.13319,115.93994,143.08241,115.98877,143.04042z"/>
		<path fill="#FFFFFF" d="M121.44873,143.27773c0.43066-0.26172,0.88574-0.40234,1.36426-0.4209
			c0.47754-0.01758,0.90625,0.08887,1.28516,0.31934c0.37793,0.23145,0.66406,0.55664,0.85645,0.97461
			s0.2627,0.87793,0.21289,1.37988s-0.21484,0.9707-0.49512,1.40723c-0.2793,0.43652-0.63477,0.78516-1.06543,1.04785
			c-0.43164,0.26172-0.88574,0.40137-1.36426,0.41992s-0.90625-0.08789-1.28516-0.31934
			c-0.37793-0.23145-0.66406-0.55566-0.85645-0.97461c-0.19238-0.41797-0.26367-0.87793-0.21289-1.37988
			c0.0498-0.50098,0.21484-0.9707,0.49414-1.40625C120.6626,143.88905,121.01709,143.53944,121.44873,143.27773z
			 M124.35303,146.74355c0.23828-0.36914,0.37891-0.76855,0.4209-1.19824c0.04297-0.42871-0.01758-0.82031-0.17969-1.17383
			c-0.16309-0.35449-0.40625-0.62988-0.73145-0.82715c-0.32422-0.19727-0.68945-0.28809-1.09375-0.27246
			c-0.40527,0.01562-0.79102,0.13477-1.15918,0.3584c-0.36719,0.22363-0.66992,0.52051-0.9082,0.88867
			c-0.2373,0.36914-0.37793,0.76855-0.41992,1.19824c-0.04297,0.42969,0.01758,0.82129,0.17969,1.1748
			c0.16309,0.35352,0.40625,0.62891,0.73145,0.82617c0.32422,0.19727,0.69043,0.28809,1.09668,0.27246
			c0.40723-0.01465,0.79297-0.13477,1.15918-0.3584C123.81396,147.40858,124.11572,147.11269,124.35303,146.74355z"/>
		<path fill="#FFFFFF" d="M133.39307,142.12733c0.04395-0.0459,0.0957-0.07227,0.15332-0.07812
			c0.05859-0.00586,0.10938,0.01074,0.15039,0.04883c0.04199,0.03906,0.06152,0.08789,0.05859,0.14746l-0.22656,5.16309
			c0,0.04688-0.0166,0.09277-0.0498,0.13867c-0.01074,0.01758-0.02441,0.03223-0.04004,0.04199
			c-0.04199,0.04199-0.0957,0.06055-0.15918,0.05371c-0.03418-0.00098-0.06445-0.01074-0.0918-0.0293
			c-0.03027-0.01367-0.05762-0.03516-0.08203-0.0625l-3.56055-4.29102l-0.19141,4.54688
			c-0.00195,0.06348-0.02539,0.11914-0.06934,0.16602s-0.09668,0.07324-0.15723,0.0791s-0.11035-0.01074-0.14941-0.0498
			c-0.04004-0.03809-0.05859-0.08984-0.05664-0.15332l0.22168-5.15625c0.00488-0.03418,0.01465-0.06738,0.02832-0.09766
			c0.01367-0.03125,0.03223-0.05859,0.05469-0.08203c0.01562-0.01465,0.03418-0.02441,0.05469-0.03125
			c0.02734-0.01562,0.05664-0.02441,0.08594-0.02734c0.0791-0.00781,0.13867,0.02051,0.17871,0.08496
			c0,0.00391,0.00293,0.00586,0.00684,0.00586c0.00488,0.00391,0.00684,0.00781,0.00781,0.01172l3.56738,4.29688l0.19629-4.56641
			C133.32568,142.22792,133.34912,142.17421,133.39307,142.12733z"/>
		<path fill="#FFFFFF" d="M145.7251,140.09218c0.05762-0.01074,0.10645,0,0.14746,0.0332
			c0.04004,0.0332,0.0625,0.0791,0.06543,0.13867c0.00293,0.06055-0.01465,0.11426-0.05176,0.16211
			c-0.03809,0.04883-0.08398,0.07812-0.13672,0.08789c-0.00488,0.00098-0.01074,0.00195-0.01855,0.00391l-0.0127,0.00195
			c-0.13184,0.02637-0.26172,0.0625-0.38965,0.1084c-0.53418,0.20312-0.96777,0.55957-1.30273,1.07031
			c-0.33496,0.51172-0.48828,1.05859-0.45801,1.64062c0.0293,0.58301,0.23535,1.06055,0.61719,1.43262
			c0.38281,0.37207,0.8457,0.55273,1.3916,0.54199c0.12402,0.00195,0.25195-0.01074,0.38379-0.03613l0.01855-0.00391
			c0.05371-0.00977,0.10059,0.00098,0.1416,0.03418s0.0625,0.0791,0.06543,0.13672c0.00195,0.05762-0.01465,0.11035-0.0498,0.1582
			c-0.03613,0.04785-0.08008,0.0791-0.13281,0.09375l-0.01855,0.00293c-0.13184,0.02637-0.26172,0.04004-0.38965,0.04395
			c-0.42773,0.01758-0.82324-0.06934-1.18555-0.26172s-0.6543-0.46973-0.87695-0.83203
			c-0.22168-0.3623-0.3457-0.77441-0.37012-1.23438c-0.0332-0.69629,0.15625-1.34961,0.56543-1.95996
			c0.41016-0.60938,0.9375-1.02637,1.58301-1.25c0.12305-0.0459,0.25098-0.08203,0.38281-0.10742l0.0127-0.00195L145.7251,140.09218
			z"/>
		<path fill="#FFFFFF" d="M150.5835,139.38026c0.36816-0.3457,0.7832-0.57715,1.24805-0.69434
			c0.46387-0.11719,0.90527-0.10156,1.32324,0.04688c0.41797,0.14746,0.76465,0.40625,1.03906,0.77539
			c0.27539,0.36914,0.43945,0.80469,0.49512,1.30566c0.05469,0.50098-0.00977,0.99414-0.19336,1.47949
			c-0.18262,0.48438-0.45801,0.89941-0.8252,1.24512c-0.36816,0.3457-0.7832,0.57715-1.24805,0.69434
			c-0.46387,0.11621-0.90527,0.10059-1.32324-0.04688s-0.76465-0.40625-1.03906-0.77539
			c-0.27539-0.37012-0.44043-0.80469-0.49512-1.30664c-0.05469-0.50098,0.00977-0.99414,0.19238-1.47852
			C149.94092,140.14101,150.21631,139.72597,150.5835,139.38026z M154.14307,142.16933
			c0.15625-0.41016,0.21094-0.83008,0.16406-1.25879c-0.04785-0.42871-0.1875-0.7998-0.41992-1.1123
			s-0.52734-0.53125-0.88672-0.65723c-0.3584-0.12598-0.7334-0.13965-1.12695-0.04004
			c-0.39258,0.09863-0.74512,0.2959-1.05859,0.59082s-0.54785,0.64746-0.7041,1.05762
			c-0.15723,0.41016-0.21094,0.83008-0.16406,1.25879c0.04785,0.42871,0.1875,0.7998,0.41992,1.1123
			s0.52734,0.53125,0.88574,0.65723c0.35938,0.125,0.73535,0.13867,1.13086,0.03906c0.39453-0.09961,0.74707-0.2959,1.05859-0.59082
			C153.75342,142.93202,153.98682,142.57948,154.14307,142.16933z"/>
		<path fill="#FFFFFF" d="M162.0083,135.83632l0.00391,0.0127c0.00293,0.00781,0.00488,0.01367,0.00586,0.01758
			c0.00195,0.00488,0.00391,0.01074,0.00586,0.01855l0.88574,5.09082c0.01074,0.05957,0,0.11621-0.03027,0.16992
			c-0.03125,0.05469-0.0752,0.0918-0.13379,0.11035c-0.05762,0.01855-0.11035,0.01367-0.15723-0.01562
			s-0.0752-0.07324-0.08594-0.13281l-0.79688-4.57227l-1.10059,1.85742l-0.09473,0.15723
			c-0.00098,0.00879-0.00391,0.01465-0.00781,0.01562c-0.03809,0.06152-0.08887,0.10254-0.15234,0.12305
			c-0.06445,0.02051-0.12305,0.01465-0.17773-0.0166c-0.00488-0.00195-0.00781-0.00586-0.00977-0.00977l-1.73438-1.06641
			l0.80273,4.57031c0.01074,0.05859-0.00098,0.11621-0.0332,0.1709c-0.0332,0.05566-0.07812,0.0918-0.13379,0.11035
			c-0.05566,0.01758-0.1084,0.0127-0.15723-0.0166c-0.04883-0.02832-0.07812-0.07227-0.08887-0.13086l-0.8916-5.08887
			c0.00293-0.00586,0.00195-0.01465-0.00195-0.02637c-0.00293-0.02148,0-0.04199,0.00586-0.0625
			c0.00586-0.02344,0.01367-0.04883,0.02246-0.07422l0.01074-0.00977c0.01465-0.02246,0.03027-0.04297,0.0459-0.06152
			c0.00391-0.00098,0.00781-0.00488,0.00977-0.00977c0.00781-0.00293,0.01367-0.00684,0.0166-0.01172
			c0.00391-0.00098,0.00781-0.00293,0.01172-0.00391s0.00684-0.00488,0.00977-0.00977
			c0.01465-0.00977,0.03516-0.01562,0.06055-0.01953c0.00781-0.00293,0.01855-0.00391,0.03125-0.00391
			c0.00391-0.00098,0.00781-0.00195,0.0127-0.00391c0.00879,0.00195,0.02051,0.00488,0.03516,0.00879
			c0.00391-0.00098,0.00879-0.00098,0.01465,0.00195c0.00488,0.00293,0.01172,0.00488,0.02148,0.00586
			c0.00488,0.00293,0.01074,0.00781,0.01758,0.01465l2.00879,1.23828l1.38867-2.33691
			c0.00488-0.01074,0.00879-0.01855,0.01172-0.02441l0.00977-0.00977c0.00684-0.00684,0.01367-0.01367,0.02051-0.01953
			c-0.00098-0.00391-0.00098-0.00684,0.00098-0.00781c0.00195,0,0.00391-0.00098,0.00586-0.00098
			c0.00195-0.00098,0.00488-0.00293,0.00781-0.00684c0.00391-0.00293,0.00879-0.00781,0.01562-0.01465
			c0.00391-0.00098,0.00781-0.00195,0.01172-0.00391l0.00586-0.00195l0.00391-0.00781
			c0.01465-0.00879,0.03516-0.01562,0.06055-0.01953c0.00781-0.00195,0.01855-0.00391,0.03125-0.00391
			c0.00391-0.00098,0.00879-0.00195,0.0127-0.00293l0.00195,0.00586c0.0127,0,0.02441,0.00098,0.0332,0.00195
			c0.00391-0.00098,0.00879,0,0.01465,0.00195c0.00488,0.00293,0.01172,0.00488,0.02148,0.00684l0.00195,0.00586
			c0.00488,0.00293,0.01074,0.00586,0.01562,0.00781c0.00586,0.00293,0.01074,0.00586,0.0166,0.00879
			c0.00098,0.00391,0.00293,0.00781,0.00684,0.01074c0.00293,0.00391,0.00684,0.00488,0.01074,0.00293
			c0.00781,0.01074,0.01465,0.01953,0.02148,0.02637c0.00098,0.00391,0.00293,0.00879,0.00391,0.0127l0.01172,0.01562
			L162.0083,135.83632z"/>
		<path fill="#FFFFFF" d="M169.73975,132.85683l0.00488,0.0127c0.00293,0.00781,0.00586,0.01367,0.00684,0.01758
			c0.00195,0.00391,0.00391,0.00977,0.00684,0.01758l1.23535,5.01758c0.01465,0.05859,0.00781,0.11523-0.01953,0.17188
			c-0.02637,0.05664-0.06836,0.0957-0.125,0.11914c-0.05664,0.02246-0.10938,0.02051-0.1582-0.00488
			c-0.04883-0.02637-0.08008-0.06836-0.09473-0.12695l-1.11133-4.50586l-0.96875,1.92773l-0.08398,0.16406
			c-0.00098,0.00977-0.00293,0.01465-0.00684,0.0166c-0.0332,0.06348-0.08105,0.10742-0.14355,0.13281
			c-0.0625,0.02441-0.12109,0.02344-0.17773-0.00391c-0.00586-0.00195-0.00879-0.00586-0.01074-0.00977l-1.80469-0.94434
			l1.11719,4.50488c0.01465,0.05762,0.00684,0.11523-0.02246,0.17285c-0.02832,0.05664-0.07031,0.09668-0.125,0.11816
			c-0.05469,0.02246-0.10742,0.02051-0.1582-0.00488c-0.05078-0.02441-0.08301-0.06641-0.09766-0.125l-1.24023-5.01562
			c0.00195-0.00488,0.00098-0.01367-0.00391-0.02539c-0.00391-0.02148-0.00293-0.04199,0.00195-0.0625
			c0.00391-0.02441,0.00977-0.0498,0.01758-0.0752l0.00879-0.01074c0.01367-0.02344,0.02734-0.04492,0.04199-0.06445
			c0.00391-0.00195,0.00684-0.00488,0.00977-0.01074c0.00781-0.00293,0.0127-0.00781,0.01465-0.0127
			c0.00391-0.00195,0.00781-0.00293,0.01172-0.00488s0.00684-0.00488,0.00977-0.01074
			c0.01367-0.00977,0.0332-0.01758,0.05859-0.02344c0.00781-0.00293,0.01758-0.00488,0.03125-0.00586
			c0.00391-0.00195,0.00781-0.00293,0.01172-0.00488c0.00879,0.00098,0.02148,0.00293,0.03613,0.00586
			c0.00391-0.00098,0.00879-0.00098,0.01367,0.00195c0.00586,0.00195,0.01367,0.00391,0.02246,0.00391
			c0.00586,0.00293,0.01172,0.00684,0.01953,0.01367l2.08887,1.09668l1.22363-2.42773
			c0.00488-0.01074,0.00879-0.01953,0.01074-0.02441l0.00879-0.01074c0.00684-0.00684,0.0127-0.01367,0.01953-0.02148
			c-0.00195-0.00391-0.00195-0.00586,0-0.00684s0.00391-0.00195,0.00586-0.00195c0.00195-0.00098,0.00488-0.00293,0.00781-0.00684
			s0.00781-0.00879,0.01367-0.01562c0.00391-0.00195,0.00781-0.00293,0.01172-0.00488l0.00586-0.00195l0.00391-0.00879
			c0.01367-0.00977,0.0332-0.01758,0.05859-0.02344c0.00684-0.00293,0.01758-0.00488,0.03125-0.00586
			c0.00391-0.00098,0.00781-0.00293,0.01172-0.00488l0.00195,0.00586c0.01367,0,0.02441,0,0.03418,0
			c0.00391-0.00098,0.00879-0.00098,0.01367,0.00195c0.00586,0.00195,0.01367,0.00391,0.02246,0.00391l0.00293,0.00684
			c0.00488,0.00195,0.01074,0.00391,0.01562,0.00684c0.00586,0.00195,0.01172,0.00488,0.0166,0.00684
			c0.00195,0.00391,0.00391,0.00781,0.00781,0.01074s0.00684,0.00391,0.01172,0.00195
			c0.00781,0.01074,0.01562,0.01855,0.02344,0.02539c0.00098,0.00391,0.00293,0.00781,0.00391,0.01172l0.01367,0.01465
			L169.73975,132.85683z"/>
		<path fill="#FFFFFF" d="M173.59131,130.98183c0.02539-0.05859,0.06543-0.10059,0.12109-0.12695
			c0.05469-0.02637,0.10742-0.02734,0.15723-0.00391c0.05078,0.02246,0.08496,0.0625,0.10254,0.12012l1.52832,4.92871
			c0.01953,0.06055,0.0166,0.12109-0.00879,0.17969s-0.06641,0.10156-0.12109,0.12695
			c-0.05566,0.02637-0.1084,0.02734-0.1582,0.00488c-0.0498-0.02344-0.08496-0.06543-0.10449-0.12598l-1.5293-4.92969
			C173.56104,131.09901,173.56494,131.0414,173.59131,130.98183z"/>
		<path fill="#FFFFFF" d="M179.8999,127.66249c0.05469-0.03027,0.1084-0.03516,0.16016-0.01465
			c0.05176,0.01953,0.08789,0.05859,0.1084,0.11426c0.02051,0.05664,0.01953,0.11426-0.00195,0.1748
			c-0.02246,0.05957-0.05957,0.10352-0.11133,0.13184l-1.08594,0.58691l1.72559,4.64648c0.02051,0.05566,0.02051,0.11328,0,0.17285
			c-0.02051,0.05859-0.05762,0.10254-0.11035,0.13184c-0.05371,0.0293-0.10645,0.0332-0.1582,0.0127
			c-0.05078-0.01953-0.08789-0.05762-0.1084-0.11426l-1.72461-4.64551l-1.14746,0.62012
			c-0.05176,0.02832-0.10352,0.03223-0.15723,0.0127c-0.05371-0.01855-0.08984-0.05664-0.11133-0.1123
			c-0.01074-0.03809-0.01367-0.07715-0.00977-0.11816c0.00391-0.04004,0.01758-0.07812,0.04004-0.11133
			c0.02246-0.03418,0.0498-0.05957,0.08301-0.07812L179.8999,127.66249z"/>
		<path fill="#FFFFFF" d="M185.82764,124.05702c0.05371-0.03418,0.10645-0.04199,0.15918-0.02539s0.0918,0.05176,0.11621,0.10645
			s0.02832,0.1123,0.00977,0.17383c-0.01758,0.06152-0.05176,0.1084-0.10059,0.13965l-1.04102,0.66309l2.05078,4.51172
			c0.02441,0.05371,0.0293,0.11133,0.0127,0.17188s-0.0498,0.10742-0.10156,0.13965
			c-0.05078,0.0332-0.10352,0.04102-0.15625,0.02441s-0.0918-0.05176-0.11621-0.10645l-2.05078-4.51172l-1.09961,0.7002
			c-0.0498,0.03223-0.10156,0.04004-0.15625,0.02441s-0.09473-0.05078-0.11914-0.10449
			c-0.01367-0.03711-0.01953-0.07617-0.01855-0.11719c0.00195-0.04004,0.01172-0.07812,0.03223-0.11426
			c0.01953-0.03516,0.0459-0.0625,0.07715-0.08301L185.82764,124.05702z"/>
		<path fill="#FFFFFF" d="M191.23096,120.20058c0.04004-0.03027,0.08496-0.03711,0.13379-0.02148
			c0.04883,0.0166,0.08789,0.05078,0.11621,0.10352c0.0293,0.05273,0.03906,0.1084,0.03125,0.16699
			c-0.00879,0.05957-0.0332,0.10352-0.07324,0.13379l-1.40625,1.05371l1.03418,1.87402l1.40625-1.05273
			c0.04004-0.03027,0.08496-0.03711,0.13379-0.02148c0.04883,0.0166,0.08887,0.05176,0.11816,0.10645
			c0.03027,0.05371,0.04102,0.11035,0.0332,0.16895c-0.00879,0.05957-0.03223,0.10449-0.07324,0.13379l-1.40625,1.05371
			l1.0293,1.87793l1.40625-1.05273c0.04395-0.0332,0.08984-0.04102,0.13867-0.02441c0.04883,0.01562,0.08789,0.0498,0.11621,0.10254
			c0.0293,0.05273,0.03906,0.1084,0.03125,0.16699c-0.00781,0.05957-0.03223,0.10449-0.07324,0.13379l-1.55176,1.16309
			c-0.01172,0.01367-0.01855,0.02148-0.02148,0.02344c-0.04688,0.03613-0.09863,0.04785-0.1543,0.03613
			c-0.05566-0.01074-0.09766-0.04297-0.12695-0.0957l-0.00293-0.00488l-0.10449-0.19141l-1.0293-1.87793l-0.11328-0.19336
			l-1.13281-2.07031l-0.10938-0.1875c-0.02832-0.05273-0.03711-0.10938-0.02539-0.1709s0.04102-0.11035,0.08789-0.14551
			l0.01465-0.01074L191.23096,120.20058z"/>
		<path fill="#FFFFFF" d="M196.25928,115.96132c0.03809-0.03418,0.08203-0.04395,0.13184-0.03223
			c0.0498,0.0127,0.0918,0.04297,0.125,0.09375c0.0332,0.0498,0.04785,0.10449,0.04395,0.16406
			c-0.00293,0.05957-0.02344,0.10547-0.06152,0.13867l-1.31543,1.16504l1.18457,1.7832l1.31543-1.16406
			c0.03711-0.0332,0.08105-0.04395,0.13086-0.03223c0.05078,0.0127,0.09277,0.04395,0.12695,0.0957s0.0498,0.10742,0.04688,0.16699
			c-0.00391,0.05957-0.02441,0.10547-0.06152,0.13867l-1.31543,1.16504l1.17871,1.78809l1.31543-1.16504
			c0.04102-0.03613,0.08691-0.04785,0.13672-0.03613c0.0498,0.0127,0.0918,0.04395,0.125,0.09375
			c0.03223,0.0498,0.04688,0.10449,0.04395,0.16406s-0.02344,0.10547-0.06152,0.13867l-1.45215,1.28613
			c-0.00977,0.01465-0.0166,0.02246-0.01953,0.02539c-0.04395,0.03906-0.09375,0.05566-0.15039,0.04883
			s-0.10059-0.03516-0.13379-0.08496l-0.00391-0.00488l-0.12012-0.18262l-1.17871-1.78711l-0.12891-0.18359l-1.29883-1.96973
			l-0.12402-0.17871c-0.0332-0.0498-0.04688-0.10547-0.04004-0.16797s0.03223-0.11328,0.07617-0.15234l0.01367-0.0127
			L196.25928,115.96132z"/>
	</g>
	<g>
		<g>
			<path fill="#FFFFFF" stroke="#231F20" stroke-width="0.75" stroke-miterlimit="10" d="M41.42915,88.98718
				c2.86222-2.4636,4.33683-3.64563,7.36691-5.90471c1.0886,0.37997,2.37994,0.42093,3.88372,0.15557
				c1.50405-0.26487,2.89696-0.66734,4.19088-1.24543c1.33004-0.59381,2.25303-1.24915,2.76877-2.02084
				c0.51575-0.77168,0.52959-1.44724,0.02353-2.00761c-1.02024-1.12887-3.41909-0.88408-7.05958,1.04189
				c-1.44837,0.7663-2.16708,1.1647-3.59188,1.99184c-0.88203-1.40731-1.32335-2.10999-2.20663-3.51344
				c1.44405-0.91402,2.17331-1.35575,3.64456-2.20849c4.02153-2.32987,5.55259-3.89076,4.40396-5.04457
				c-0.43254-0.43438-1.20477-0.55421-2.31314-0.32499c-1.10837,0.22921-2.26422,0.71292-3.45285,1.44469
				c-2.81841,1.73458-4.05081,3.54811-3.76845,5.19285c-3.90287,1.87055-5.82612,2.9412-9.56729,5.35584
				c-0.36007-1.51846,0.25191-3.5391,1.93562-6.02565c1.68252-2.48553,4.3135-5.13842,7.95792-7.62061
				c4.30661-2.93369,8.50533-4.73603,12.37471-5.39471c3.86914-0.65926,6.4763,0.08966,7.79501,1.8508
				c0.8602,1.14848,0.87907,2.42816,0.11322,3.7804c-0.76671,1.35403-2.19609,2.56826-4.27864,3.75324
				c4.56499-0.99619,7.64203-0.09451,9.16298,2.18288c1.23544,1.85146,0.92858,3.84753-0.76115,5.86512
				c-1.69091,2.01799-4.74788,3.54559-9.19334,5.1729C52.95235,88.35905,46.64526,89.69788,41.42915,88.98718z"/>
			<path fill="#FFFFFF" stroke="#231F20" stroke-width="0.75" stroke-miterlimit="10" d="M107.21311,67.82403
				c-0.00906,2.61842-0.01415,3.92805-0.02544,6.54811c-2.20641-0.25342-3.31493-0.3478-5.53737-0.47138
				c0.11865,2.76602,0.17741,4.14948,0.29379,6.91734c-4.02661-0.44606-6.06258-0.55492-10.14481-0.53915
				c-0.35126-2.54798-0.52739-3.82146-0.88065-6.3674c-6.04404,0.34584-9.07848,0.75789-15.06926,2.06598
				c-0.62478-2.19624-0.93746-3.29392-1.56343-5.48843c4.60786-7.31427,7.24266-11.2076,13.45398-19.22297
				c5.08382-1.06922,7.6558-1.46432,12.81874-1.97151c0.33556,7.31305,0.49955,10.97283,0.81955,18.29892
				C103.71614,67.618,104.8842,67.66416,107.21311,67.82403z M90.68275,68.04855c-0.47154-3.50525-0.70825-5.2569-1.1835-8.75833
				c-0.4629,0.67345-0.9973,1.42511-1.5948,2.25454c-2.28642,3.10574-3.35806,4.633-5.37726,7.61943
				C85.77801,68.58481,87.41205,68.36172,90.68275,68.04855z"/>
			<path fill="#FFFFFF" stroke="#231F20" stroke-width="0.75" stroke-miterlimit="10" d="M144.89345,53.729
				c-0.77405,2.90702-1.1617,4.36074-1.93829,7.26863c-4.7605,2.44074-8.55626,6.0429-11.46823,10.61139
				c-2.91196,4.56849-4.56911,9.40161-5.37593,14.60606c-4.65-1.91437-7.04907-2.70245-11.93066-3.92685
				c0.71867-5.57506,2.54749-10.43307,5.8925-14.64857c3.3449-4.21458,7.06401-7.03271,10.87303-8.22045
				c-8.46429-1.86758-12.78947-2.38175-21.41521-2.57016c0.50864-3.09932,0.7753-4.65681,1.33392-7.78695
				C123.03455,49.5648,133.03317,50.94233,144.89345,53.729z"/>
		</g>
	</g>
	<g>
		<path fill="#FFFFFF" d="M37.5874,35.2455l0.00977,0.00977c0.00684,0.00684,0.01172,0.01172,0.01465,0.01465
			c0.00391,0.00391,0.00879,0.00879,0.01562,0.01465l2.95605,5.07422c0.03418,0.05859,0.03418,0.13867-0.00098,0.24023
			c-0.03516,0.10254-0.09766,0.19824-0.1875,0.28809c-0.08984,0.09082-0.17773,0.14551-0.26367,0.16602
			c-0.08594,0.01953-0.14551,0-0.17969-0.05859l-2.6582-4.55469l-1.26465,3.51953l-0.10938,0.2998
			c0.00098,0.0127-0.00195,0.02246-0.00781,0.02832c-0.04395,0.11816-0.11621,0.22656-0.21484,0.32617
			c-0.09961,0.09961-0.19824,0.16211-0.29688,0.18848c-0.00879,0.00293-0.01562,0.00293-0.01855-0.00098l-3.16992,0.75391
			l2.66797,4.54492c0.03418,0.05859,0.03223,0.14062-0.00586,0.24512c-0.03809,0.10547-0.10059,0.20117-0.1875,0.28809
			c-0.08594,0.08789-0.17383,0.14258-0.26367,0.16602c-0.08887,0.02246-0.15039,0.00488-0.18457-0.05371l-2.96484-5.06445
			c0.00293-0.00977-0.00098-0.01953-0.01074-0.0293c-0.01074-0.02246-0.01367-0.0498-0.00781-0.08203
			c0.00195-0.03516,0.00684-0.07324,0.01465-0.11523l0.01367-0.02344c0.01758-0.04492,0.03711-0.08691,0.05762-0.12891
			c0.00684-0.00586,0.01074-0.01367,0.01367-0.02344c0.0127-0.01172,0.02051-0.02344,0.02344-0.0332
			c0.00586-0.00586,0.01172-0.01172,0.01855-0.01855c0.00586-0.00586,0.01074-0.01367,0.01367-0.02344
			c0.02148-0.02832,0.05176-0.05957,0.09277-0.09375c0.0127-0.01172,0.0293-0.02637,0.05176-0.04102
			c0.00586-0.00684,0.01172-0.0127,0.01855-0.01953c0.01562-0.00879,0.03613-0.01953,0.06152-0.03125
			c0.00586-0.00684,0.01367-0.01074,0.02344-0.01367c0.00879-0.00293,0.02148-0.00879,0.03711-0.01855
			c0.00977-0.00293,0.02148-0.00391,0.03418-0.00391l3.6709-0.86816l1.59668-4.43359c0.00586-0.01855,0.00977-0.0332,0.0127-0.04297
			l0.01367-0.02344c0.00879-0.01562,0.01758-0.03125,0.02734-0.04785c-0.00391-0.00293-0.00391-0.00586-0.00098-0.00879
			c0.00391-0.00391,0.00684-0.00684,0.00977-0.00977s0.00684-0.00879,0.01172-0.0166
			c0.00391-0.00781,0.01074-0.01953,0.02051-0.03516c0.00586-0.00684,0.01172-0.0127,0.01855-0.01855l0.00879-0.00977
			l0.00391-0.01465c0.02148-0.02734,0.05273-0.05859,0.09375-0.09277c0.01172-0.0127,0.0293-0.02637,0.05078-0.04199
			c0.00684-0.00684,0.0127-0.0127,0.01855-0.01855l0.00488,0.00488c0.02246-0.01562,0.04102-0.02734,0.05664-0.03711
			c0.00586-0.00586,0.01465-0.01074,0.02344-0.01367c0.00977-0.00293,0.02246-0.00879,0.03809-0.01855l0.00488,0.00488
			c0.00977-0.00195,0.01953-0.00488,0.0293-0.00879c0.00879-0.00195,0.01855-0.00488,0.02832-0.00879
			c0.00293,0.00391,0.00781,0.00586,0.01465,0.00586c0.00586,0,0.0127-0.00293,0.01855-0.00879
			c0.0166,0.00293,0.03125,0.00488,0.04395,0.00586c0.00293,0.00293,0.00684,0.00684,0.00977,0.00977l0.02441,0.00586
			L37.5874,35.2455z"/>
		<path fill="#FFFFFF" d="M54.32178,25.05311c0.06738-0.04199,0.13281-0.07227,0.19824-0.09277
			c0.06445-0.02051,0.11719-0.02734,0.1582-0.01953c0.04102,0.00879,0.06641,0.02832,0.07617,0.06152l0.62109,2.07129
			c0.01465,0.04004,0.0293,0.08105,0.04395,0.12109c0.01367,0.04102,0.02539,0.08398,0.03223,0.12891l0.61719,2.06543
			c0.01953,0.04883-0.00391,0.11523-0.07031,0.2002s-0.15234,0.16016-0.25684,0.22363
			c-0.10547,0.06445-0.20117,0.10156-0.28809,0.11035c-0.08691,0.00977-0.13672-0.01172-0.14844-0.06543l-0.2334-0.75684
			c-0.0752,0.14551-0.1582,0.28711-0.24902,0.4248c-0.00977,0.01758-0.02051,0.03418-0.03027,0.05176
			c-0.20898,0.31543-0.45996,0.62891-0.75293,0.94043c-0.49316,0.52344-1.05371,0.97949-1.68066,1.36914
			c-0.63184,0.38281-1.25098,0.64942-1.8584,0.80176c-0.3584,0.08789-0.69238,0.13281-1,0.13477
			c-0.0127-0.00391-0.02832-0.00488-0.04883-0.00391c-0.40723-0.00879-0.75-0.09668-1.02832-0.26465s-0.4668-0.4082-0.56641-0.72168
			c-0.13086-0.44824-0.06934-0.9707,0.18359-1.56641c0.25391-0.5957,0.65527-1.18359,1.20703-1.76367
			c0.49316-0.52246,1.05371-0.97949,1.68066-1.36914c0.63184-0.38184,1.25098-0.64941,1.8584-0.80176
			c0.53516-0.13574,1.01465-0.16992,1.43652-0.10449l-0.2334-0.75781c-0.01172-0.05273,0.01465-0.11914,0.07812-0.2002
			C54.13232,25.18983,54.21631,25.11757,54.32178,25.05311z M54.56494,27.71913c-0.07031-0.23242-0.20215-0.41309-0.39453-0.54297
			c-0.19238-0.12891-0.42969-0.2041-0.70996-0.22461c-0.28125-0.02051-0.59375,0.01465-0.94043,0.10547
			c-0.46582,0.11523-0.94238,0.32031-1.43262,0.61426c-0.48438,0.30273-0.91699,0.65625-1.29785,1.06055
			c-0.42578,0.44922-0.73633,0.90332-0.93262,1.36523s-0.24121,0.86328-0.13477,1.20508
			c0.07227,0.25293,0.22168,0.44531,0.44629,0.57715c0.38867,0.22949,0.91699,0.25977,1.58691,0.0918
			c0.08984-0.02246,0.17676-0.04785,0.26172-0.07812c0.38867-0.12305,0.77734-0.30371,1.16699-0.54199
			c0.39746-0.24414,0.76074-0.52441,1.0918-0.84277c0.07227-0.06641,0.14648-0.13965,0.22168-0.21875
			c0.41797-0.44336,0.72559-0.89648,0.92188-1.3584S54.66455,28.06581,54.56494,27.71913z"/>
		<path fill="#FFFFFF" d="M69.31689,18.24159c0.13086-0.05176,0.24707-0.06934,0.34863-0.05176s0.1582,0.06445,0.16895,0.14062
			c0.00098,0.0498-0.0166,0.10547-0.05371,0.16602c-0.03809,0.06055-0.09082,0.11816-0.1582,0.17285
			c-0.06836,0.05469-0.14746,0.09961-0.2373,0.13574c-0.00781,0.00293-0.02539,0.00781-0.05176,0.0127
			c-0.51074,0.21387-0.98047,0.48242-1.41016,0.80469c-0.46484,0.35254-0.83496,0.72949-1.10938,1.13184
			c-0.27539,0.40234-0.40527,0.77734-0.38965,1.125l0.27246,2.28613c0.00977,0.04688-0.00098,0.09668-0.03223,0.14941
			s-0.07617,0.10449-0.13672,0.15625c-0.05957,0.05176-0.125,0.09473-0.19727,0.12793
			c-0.03906,0.02051-0.0752,0.03711-0.10742,0.05078c-0.11426,0.04492-0.21484,0.06543-0.30273,0.05957
			c-0.08691-0.00586-0.13574-0.03418-0.14746-0.08496l-0.00684-0.08887l-0.46875-3.91895l-0.07324-0.53906
			c-0.00293-0.05469,0.0332-0.11719,0.10938-0.18848c0.07617-0.07031,0.17578-0.12988,0.29785-0.17871
			c0.05664-0.02246,0.1123-0.03906,0.16406-0.05078c0.05273-0.01074,0.09863-0.01367,0.13867-0.00879
			c0.03906,0.00391,0.07129,0.0127,0.0957,0.02637c0.02344,0.0127,0.03711,0.03418,0.03906,0.06348l0.10059,0.78613
			c0.32812-0.43457,0.74805-0.8418,1.25879-1.22168c0.56055-0.4209,1.17383-0.76855,1.83984-1.04395
			C69.29248,18.25136,69.30908,18.24452,69.31689,18.24159z"/>
		<path fill="#FFFFFF" d="M80.10791,13.46229c0.08301-0.04688,0.18359-0.08691,0.30176-0.11914
			c0.11914-0.0332,0.22168-0.04883,0.30859-0.04785c0.08594,0,0.12988,0.01758,0.12988,0.05176l0.00098,0.45215
			c-0.00293,0.02051-0.02344,0.04492-0.06152,0.0752c-0.03711,0.0293-0.08789,0.05957-0.15234,0.08887
			c-0.06543,0.03027-0.13574,0.05566-0.21191,0.07617c-0.12695,0.03516-0.23145,0.05176-0.31445,0.0498
			c-0.08203-0.00098-0.12402-0.01953-0.12402-0.05371l-0.00098-0.45215C79.98389,13.55018,80.0249,13.50917,80.10791,13.46229z
			 M80.42236,14.73378c0.11816-0.0332,0.2207-0.0332,0.30762-0.00098c0.08594,0.03223,0.12988,0.08496,0.13184,0.15723
			l0.03613,4.41992c0.00195,0.07324-0.04102,0.14941-0.12891,0.22949c-0.08691,0.08008-0.19043,0.13574-0.30859,0.16797
			c-0.11914,0.0332-0.22168,0.0332-0.30762,0.00098s-0.12598-0.08594-0.11914-0.16113l-0.03613-4.41992
			c-0.00488-0.04785,0.01367-0.09766,0.05371-0.15039c0.04102-0.05176,0.09375-0.10059,0.1582-0.14551
			C80.2749,14.78749,80.34619,14.75429,80.42236,14.73378z"/>
		<path fill="#FFFFFF" d="M97.36768,11.28358c0.13965-0.02246,0.25586-0.01367,0.35156,0.02539
			c0.09473,0.04004,0.13574,0.09863,0.12207,0.17676c-0.00098,0.05273-0.02637,0.10449-0.07617,0.15527
			s-0.11426,0.09375-0.19238,0.12988c-0.0791,0.03613-0.16602,0.0625-0.26172,0.07715l-1.44531,0.22949
			c-0.52637,0.09863-1.02734,0.25195-1.50195,0.45996c-0.56445,0.25195-1.02637,0.55273-1.38379,0.9043
			c-0.3584,0.35156-0.55371,0.70605-0.58594,1.0625c-0.02832,0.26562,0.03613,0.50293,0.19336,0.70996
			c0.27148,0.36133,0.74805,0.5918,1.43164,0.69238c0.08984,0.00977,0.18066,0.01855,0.27148,0.02832
			c0.40527,0.03516,0.83398,0.0166,1.28613-0.05469l1.34082-0.21387c0.13867-0.02148,0.25586-0.0127,0.35059,0.02637
			c0.0957,0.04004,0.1377,0.09863,0.12793,0.17578c-0.00977,0.07812-0.06738,0.15234-0.1709,0.22363
			c-0.10449,0.07129-0.22656,0.11719-0.36523,0.13965l-1.4707,0.2334l-0.00098-0.00684
			c-0.67969,0.09375-1.30566,0.09863-1.87988,0.01367c-0.36523-0.05566-0.69043-0.1416-0.97559-0.25781
			c-0.00977-0.00781-0.02441-0.01562-0.04297-0.02148c-0.37305-0.16406-0.65625-0.37695-0.84961-0.63867
			c-0.19238-0.26172-0.27539-0.55566-0.24707-0.88379c0.05078-0.46387,0.30664-0.92383,0.76855-1.37988
			c0.46094-0.45605,1.05762-0.84668,1.78906-1.17188c0.60645-0.27148,1.25488-0.46973,1.94727-0.59473l-0.00098-0.00684
			L97.36768,11.28358z"/>
		<path fill="#FFFFFF" d="M114.01318,10.31776c0.66602,0.18164,1.1709,0.45605,1.51367,0.82129
			c0.34375,0.36523,0.46191,0.77539,0.35547,1.23047c-0.07715,0.32227-0.25879,0.63281-0.54688,0.93164
			c-0.28809,0.2998-0.66113,0.56738-1.11816,0.80469l-0.01172,0.0293l-0.04004,0.00098
			c-0.3457,0.17285-0.71777,0.32227-1.11816,0.44922c-0.68652,0.20801-1.39941,0.33105-2.13672,0.36719
			c-0.7373,0.01758-1.4082-0.05469-2.0127-0.21582c-0.35547-0.09961-0.66699-0.22461-0.93652-0.37402
			c-0.01855-0.00879-0.03125-0.01758-0.04102-0.02734c-0.35059-0.20703-0.60547-0.45312-0.76465-0.73535
			c-0.16016-0.2832-0.20605-0.58594-0.13867-0.90723c0.10645-0.45508,0.41602-0.88086,0.92871-1.27734
			c0.51367-0.39648,1.15234-0.71191,1.91797-0.94727c0.6875-0.20801,1.39941-0.33008,2.13672-0.36621
			C112.73877,10.08436,113.40967,10.15663,114.01318,10.31776z M114.88037,12.39882
			c0.05273-0.23242,0.02734-0.45215-0.07617-0.65918c-0.10449-0.20801-0.27441-0.38965-0.50879-0.54492
			c-0.23438-0.15625-0.52441-0.28125-0.87109-0.37695c-0.46094-0.12402-0.97754-0.17773-1.54883-0.16211
			c-0.5791,0.02637-1.12988,0.11914-1.65137,0.27832c-0.5918,0.18164-1.08594,0.4248-1.48438,0.73047
			c-0.39746,0.30566-0.63379,0.63379-0.70898,0.98438c-0.06152,0.25586-0.02637,0.49805,0.10547,0.72852
			c0.22559,0.39062,0.6709,0.67773,1.33789,0.85938c0.08789,0.02051,0.17676,0.04102,0.26562,0.06055
			c0.39844,0.08496,0.82617,0.11816,1.2832,0.10156c0.46484-0.0166,0.91992-0.08301,1.36426-0.19727
			c0.0957-0.02734,0.19629-0.05469,0.30078-0.08203c0.58203-0.18555,1.07227-0.43066,1.46973-0.73633
			C114.55615,13.07753,114.79639,12.7494,114.88037,12.39882z"/>
		<path fill="#FFFFFF" d="M134.00732,11.33436c0.63477,0.27148,1.0957,0.60938,1.38281,1.01465
			c0.28613,0.40625,0.34961,0.82715,0.19141,1.26465c-0.11816,0.30859-0.34082,0.5918-0.66699,0.84961
			s-0.73145,0.47266-1.2168,0.64648l-0.01562,0.02637l-0.03906-0.00391c-0.36621,0.12402-0.75586,0.22168-1.16895,0.29395
			c-0.71777,0.11719-1.44434,0.1416-2.17969,0.07324c-0.72559-0.07617-1.37598-0.23828-1.95215-0.4834
			c-0.34766-0.14844-0.63965-0.31348-0.87793-0.49805c-0.0166-0.01074-0.02832-0.02148-0.03613-0.03125
			c-0.10645-0.08594-0.20312-0.17383-0.29199-0.2627l-0.91895,2.44824c-0.02441,0.06738-0.08887,0.12109-0.19434,0.16016
			s-0.21973,0.05273-0.3418,0.04102c-0.08789-0.00879-0.16113-0.02734-0.21973-0.05371
			c-0.05957-0.02734-0.10254-0.0625-0.12891-0.10547c-0.02637-0.04199-0.0332-0.08691-0.02051-0.13281l0.01465-0.0127
			l2.04102-5.46973l0.16211-0.43652c0.02539-0.07227,0.09277-0.12891,0.20215-0.16699
			c0.11035-0.03906,0.22656-0.05176,0.34863-0.04004c0.0791,0.00781,0.14941,0.02734,0.21289,0.05664
			c0.06348,0.03027,0.1084,0.06641,0.13477,0.10938c0.02637,0.04199,0.0293,0.08594,0.00684,0.13086l-0.25195,0.66797
			c0.5-0.22852,1.06348-0.39355,1.69238-0.49609c0.70898-0.11816,1.43164-0.14355,2.16602-0.0752
			C132.77588,10.92714,133.43115,11.08925,134.00732,11.33436z M133.73584,14.39198c0.43555-0.24902,0.7168-0.54199,0.84277-0.87793
			c0.12598-0.33691,0.07715-0.66211-0.14844-0.97754c-0.22461-0.31445-0.58301-0.57617-1.07422-0.78516
			c-0.44043-0.19043-0.94434-0.31543-1.51172-0.37695c-0.57812-0.05273-1.13672-0.03223-1.6748,0.05957
			c-0.61133,0.09961-1.13379,0.27441-1.56934,0.52344s-0.71875,0.54199-0.84863,0.87793
			c-0.08691,0.24609-0.08008,0.48926,0.01953,0.73047c0.1709,0.41699,0.57422,0.76172,1.20898,1.03223
			c0.07617,0.03125,0.16113,0.06348,0.25586,0.0957c0.38379,0.1377,0.80273,0.23145,1.25684,0.28125
			c0.46387,0.04102,0.92383,0.03516,1.37891-0.01855c0.09863-0.00879,0.20117-0.02246,0.30859-0.04004
			C132.78174,14.81581,133.30127,14.641,133.73584,14.39198z"/>
		<path fill="#FFFFFF" d="M154.91455,15.17225c0.07715,0.01855,0.14551,0.04395,0.20508,0.07617
			c0.06055,0.03223,0.10156,0.06543,0.125,0.09961c0.02246,0.03516,0.02637,0.06738,0.00977,0.09668l-1.04297,1.89453
			c-0.01953,0.03906-0.03809,0.07812-0.05664,0.11719c-0.01855,0.03809-0.04199,0.07617-0.06934,0.11328l-1.04102,1.88672
			c-0.02148,0.04883-0.08594,0.07812-0.19238,0.08984c-0.10742,0.0127-0.2207,0.00391-0.33984-0.02637
			s-0.21289-0.07227-0.28027-0.12793c-0.06836-0.05566-0.08691-0.10645-0.05762-0.15234l0.37793-0.69629
			c-0.15723,0.04785-0.31641,0.08789-0.47852,0.12012c-0.01953,0.00488-0.03906,0.00977-0.05762,0.01465
			c-0.37109,0.07129-0.77148,0.1123-1.19922,0.12109c-0.71875,0.01465-1.43652-0.06543-2.1543-0.23926
			c-0.71484-0.18359-1.33984-0.43848-1.87402-0.76562c-0.31348-0.19434-0.5791-0.40039-0.79688-0.61914
			c-0.00586-0.01172-0.0166-0.02344-0.03125-0.03711c-0.2793-0.29688-0.45605-0.60352-0.53125-0.91992
			c-0.0752-0.31543-0.03613-0.61914,0.11816-0.90918c0.22852-0.4082,0.64355-0.72949,1.24609-0.96582
			c0.60254-0.2373,1.30371-0.3623,2.10449-0.375c0.71875-0.01367,1.4375,0.06641,2.1543,0.24023
			c0.71484,0.18359,1.33984,0.43848,1.87402,0.76465c0.47168,0.28711,0.83203,0.60449,1.08105,0.95215l0.37695-0.69727
			c0.0293-0.0459,0.0957-0.07422,0.19824-0.08496C154.68408,15.13222,154.79541,15.14198,154.91455,15.17225z M153.18311,17.21327
			c0.11621-0.21289,0.15332-0.43262,0.11035-0.66113s-0.15527-0.4502-0.33691-0.66504
			c-0.18164-0.21387-0.42676-0.41309-0.73438-0.59668c-0.4082-0.25098-0.88867-0.44824-1.44141-0.5918
			c-0.55566-0.13379-1.11133-0.19434-1.66602-0.18359c-0.61914,0.01074-1.16113,0.10742-1.62793,0.29102
			s-0.78516,0.43262-0.9541,0.74805c-0.12988,0.22852-0.16309,0.46973-0.09961,0.72266
			c0.1084,0.43848,0.45703,0.83691,1.04688,1.19727c0.07812,0.04785,0.1582,0.09277,0.23828,0.13184
			c0.36035,0.19141,0.76172,0.3418,1.20508,0.45312c0.45215,0.1123,0.90723,0.1748,1.36621,0.18848
			c0.09766,0.00488,0.20215,0.00684,0.31055,0.00488c0.61035-0.0127,1.14844-0.11035,1.61523-0.29395
			C152.68213,17.77577,153.00439,17.52675,153.18311,17.21327z"/>
		<path fill="#FFFFFF" d="M159.46338,20.39979l-0.68945,0.96387l-2.08105,0.70508l-0.97852-0.32129l1.71582-0.70605
			l-1.02539-0.33691l0.75879-1.06055L159.46338,20.39979z"/>
		<path fill="#FFFFFF" d="M182.06494,32.02382c-0.00293,0.07422-0.0498,0.12109-0.14258,0.14062s-0.19727,0.00781-0.31445-0.03516
			s-0.21387-0.10449-0.29004-0.1836c-0.07617-0.0791-0.10938-0.1543-0.09863-0.22363l0.39941-2.85059l-2.77344-1.60352
			l-3.50391,1.05664c-0.08594,0.02637-0.1875,0.02246-0.30566-0.01074c-0.11816-0.03223-0.22168-0.08691-0.30957-0.16211
			s-0.13184-0.14941-0.13086-0.22168c0.00195-0.07227,0.04492-0.12207,0.13184-0.14844l3.2959-0.98828l0.62793-0.19043
			l3.50684-1.0625c0.07422-0.02148,0.16016-0.02344,0.26074-0.00293c0.01758,0.00488,0.03223,0.00879,0.04492,0.01367
			s0.02441,0.00684,0.03418,0.00684c0.01562,0.00879,0.02734,0.01367,0.03809,0.01465
			c0.00684,0.00391,0.01465,0.00781,0.02246,0.0127c0.01758,0.00488,0.03418,0.01172,0.04883,0.02051
			c0.01562,0.00879,0.03027,0.01758,0.0459,0.02637s0.03027,0.01758,0.0459,0.02637c0.01465,0.00879,0.0293,0.01953,0.04199,0.03223
			c0.00781,0.00488,0.01855,0.01074,0.03418,0.01953c-0.00195,0.00488,0,0.00879,0.00781,0.0127l0.01172,0.00684
			c0.0127,0.0127,0.02441,0.02734,0.03516,0.04492l0.01074,0.00684c0.05273,0.06738,0.07617,0.13281,0.07031,0.19434
			l-0.40234,2.85645l-0.06836,0.51367L182.06494,32.02382z M179.47217,27.0785l2.21387,1.2793l0.27832-2.03418L179.47217,27.0785z"
			/>
		<path fill="#FFFFFF" d="M199.36084,38.58827c-0.00586,0.00684-0.01172,0.01367-0.01855,0.02148
			c-0.00586,0.00684-0.01074,0.01172-0.01367,0.01562c-0.00684,0.00684-0.01172,0.01172-0.01465,0.01562
			c-0.00293,0.00293-0.0127,0.00684-0.02832,0.01172c-0.03809,0.0166-0.08594,0.02344-0.14355,0.02246l-1.31152-0.09668
			l-7.33594-0.54102l3.82031,3.41992c0.07812,0.08301,0.12598,0.16211,0.1416,0.23633c0.0166,0.07422,0.00098,0.13086-0.0459,0.1709
			c-0.06055,0.04102-0.14355,0.04492-0.25,0.0127c-0.10742-0.0332-0.20605-0.08984-0.29785-0.17188l-4.33984-3.88672
			c-0.0459-0.04102-0.08398-0.08496-0.11426-0.12988c0.02637,0.03613,0.05957,0.07129,0.09863,0.10645
			c0.01367,0.01172,0.02344,0.02051,0.03027,0.02637c-0.0918-0.08203-0.15137-0.16309-0.17871-0.24414
			c-0.02734-0.08203-0.01758-0.1416,0.0293-0.18164c0.00293-0.00391,0.00586-0.00684,0.00977-0.01074l0.00879-0.01074
			c0.00977,0.00293,0.0166,0.00195,0.01953-0.00098c0.04102-0.01953,0.09082-0.0293,0.14844-0.02832l1.3252,0.10059l7.31152,0.5293
			l-3.77051-3.37695c-0.0918-0.08203-0.15137-0.16699-0.17871-0.25488c-0.02734-0.08691-0.0127-0.14941,0.04395-0.18652
			c0.02832-0.01953,0.06543-0.02734,0.11035-0.02441c0.00293-0.00391,0.00879-0.00391,0.01855-0.00195l0.00488-0.00488
			c0.00977,0.00195,0.01953,0.00391,0.0293,0.00684c0.02246,0.00098,0.04199,0.00586,0.05762,0.01367
			c0.0127-0.00098,0.02246,0.00195,0.0293,0.00781c0.00977,0.00195,0.02246,0.00781,0.03906,0.01562
			c0.0127-0.00098,0.02246,0.00098,0.0293,0.00684c0.00879,0.00293,0.02539,0.01074,0.04883,0.02539
			c0.00879,0.00195,0.01758,0.00586,0.02344,0.01172c0.04883,0.02441,0.08984,0.05176,0.12207,0.08105l4.37012,3.91309
			c0.00684,0.00586,0.01367,0.01172,0.01953,0.01758l0.00977,0.00879c0.03613,0.03906,0.06738,0.07617,0.09375,0.1123
			c0.01367,0.02441,0.02344,0.04688,0.03125,0.06543c0.00586,0.00586,0.00977,0.01465,0.00977,0.02734l0.01074,0.02832
			C199.37744,38.51796,199.37646,38.558,199.36084,38.58827z"/>
	</g>
	<path fill="#FFFFFF" stroke="#231F20" stroke-width="0.4" stroke-miterlimit="10" d="M190.02061,63.65003
		c0,0,0.09488-1.00224,0.48203-1.68841s1.12328-3.01536-0.01695-3.8825c0,0-0.66887-0.91232-2.77492-0.7383
		c-2.10603,0.17402-3.32835,1.32438-4.033,2.27506s-1.13191,2.57907-1.01909,3.45584c0,0,0.06911,0.64182-0.57141,1.18302
		c-0.64052,0.54121-0.56989,1.27789-0.17552,1.34855s1.11653-0.02645,1.34856,0.08171
		c0.23203,0.10817,0.24294,1.04044,0.11725,1.48182c-0.12567,0.44138,0.04825,0.4958,0.04825,0.4958
		s0.46762-0.04023,0.61256-0.14798c0,0,0.99348,0.09432,1.14861-0.08521c0,0,0.70592,0.14592,1.09998-0.02553
		c0,0,0.51859,0.08511,0.69398-0.01009c0.17542-0.09521,0.48125-0.92877,0.52007-1.16355
		c0.03883-0.23479,0.52385-0.9074,1.00397-0.87711c0,0,1.40497,0.16878,1.70403-0.83769
		C190.20898,64.51547,190.31804,63.94683,190.02061,63.65003z"/>
	
		<ellipse transform="matrix(0.85078 -0.52552 0.52552 0.85078 -5.19693 108.41489)" fill="#58595B" stroke="#231F20" stroke-width="0.2" stroke-miterlimit="10" cx="188.3109" cy="63.35879" rx="1.21542" ry="0.75618"/>
	
		<ellipse transform="matrix(0.92373 -0.38304 0.38304 0.92373 -10.31155 75.38219)" fill="#58595B" stroke="#231F20" stroke-width="0.2" stroke-miterlimit="10" cx="184.13985" cy="63.5849" rx="1.08547" ry="0.86447"/>
	<path fill="#58595B" stroke="#231F20" stroke-width="0.2" stroke-miterlimit="10" d="M186.41554,65.10357l-0.18573-1.27307
		c-0.01773-0.17469-0.32463-0.12347-0.38336,0.02131l-0.80292,1.32802c-0.04785,0.17834,0.42905-0.10596,0.71489-0.16661
		C185.97736,65.00434,186.42557,65.28844,186.41554,65.10357z"/>
	<polygon fill="#FFFFFF" stroke="#231F20" stroke-width="0.3" stroke-miterlimit="10" points="192.62247,66.70953 
		192.27403,67.72942 190.14565,68.24252 189.96199,68.10948 185.07167,70.06052 187.42818,71.7835 187.80182,71.63148 
		189.30951,72.06222 188.32129,73.09475 186.19923,73.3038 185.87617,72.39797 186.25623,72.24591 183.89981,70.52927 
		179.19963,72.41061 179.71269,72.78437 178.1797,73.73454 176.27301,73.61419 176.62144,72.59434 177.89468,72.28395 
		177.87566,72.27127 183.31073,70.09853 180.7579,68.23618 180.39046,68.38186 178.87657,67.95112 179.86472,66.91859 
		181.98677,66.70953 182.30983,67.61537 181.93604,67.76743 184.48888,69.62978 189.37285,67.67874 189.18279,67.53936 
		190.71576,66.58918 	"/>
	<g>
		<g>
			<g>
				<path fill="#FFFFFF" stroke="#231F20" stroke-width="0.6" stroke-miterlimit="10" d="M52.25038,103.59201
					c-2.35609-0.01125-3.54716,0.01666-5.95046,0.14236c-2.53795,1.87901-3.71162,2.77265-5.89108,4.44529
					c-2.11267,0.1339-3.17854,0.22942-5.32549,0.47971c5.58885-4.50269,8.94147-7.20998,17.18574-13.09093
					c5.83044-0.43688,8.70107-0.47382,14.29881-0.21489c-2.12881,1.33445-3.14987,1.9895-5.11032,3.26863
					c-3.18941-0.11438-4.80764-0.1145-8.08033,0.00555c-1.27604,0.89592-1.89508,1.33641-3.09696,2.20048
					c2.46743-0.10777,3.69042-0.12641,6.11002-0.09604C54.66383,101.90663,53.83675,102.47966,52.25038,103.59201z"/>
			</g>
			<g>
				<path fill="#FFFFFF" stroke="#231F20" stroke-width="0.6" stroke-miterlimit="10" d="M58.25727,108.336
					c0.94418-0.90542,1.43736-1.37103,2.46792-2.32579c-1.81464-0.21054-2.7325-0.29443-4.58673-0.41776
					c-1.78684,0.89413-2.64918,1.33163-4.31588,2.18249c-1.69422-0.08741-2.54956-0.1122-4.27458-0.12261
					c8.32984-4.44867,13.19353-7.05766,24.83363-12.35601c2.47617,0.2312,3.70016,0.38055,6.11538,0.7438
					c-7.25678,5.72849-10.24151,8.40266-15.15534,13.07806C61.33794,108.74821,60.32025,108.59122,58.25727,108.336z
					 M61.0239,103.03746c1.14462,0.09319,1.71344,0.1479,2.8435,0.27316c1.68087-1.4797,2.56995-2.24464,4.45149-3.81723
					C65.25905,100.94209,63.80242,101.65423,61.0239,103.03746z"/>
			</g>
			<g>
				<path fill="#FFFFFF" stroke="#231F20" stroke-width="0.6" stroke-miterlimit="10" d="M80.99781,106.72881
					c1.63042,0.6273,2.42983,0.96209,3.99445,1.6717c-2.89341,1.2972-5.47213,2.05653-7.91118,2.36341
					c-2.43983,0.30698-4.45313,0.19408-6.17844-0.28502c-2.07635-0.57587-3.00229-1.43827-2.67171-2.72437
					c0.33055-1.28602,1.97974-2.83826,5.32059-4.76706c3.30936-1.91028,6.93237-3.40417,10.66859-4.31936
					c3.73885-0.91629,6.99327-1.0497,9.46548-0.31988c2.31085,0.68154,3.05872,1.73676,2.33858,3.04225
					c-0.72133,1.30535-2.56919,2.70731-5.31876,4.16734c-1.95489-0.6026-2.94651-0.881-4.95514-1.3899
					c1.55026-0.79369,2.51077-1.44458,2.80477-1.93647c0.29417-0.49218,0.1527-0.83035-0.43385-1.00031
					c-1.63713-0.47531-4.92254,0.55849-9.16254,2.87688c-2.37605,1.29935-3.66337,2.19988-4.05135,2.7496
					c-0.38856,0.55076-0.21323,0.91478,0.50173,1.11433C76.68487,108.32884,78.46618,107.9461,80.99781,106.72881z"/>
			</g>
			<g>
				<path fill="#FFFFFF" stroke="#231F20" stroke-width="0.6" stroke-miterlimit="10" d="M103.33347,107.48956
					c-8.02446,3.39331-11.54742,5.06933-17.74976,8.14157c-1.56489-0.79401-2.36541-1.1704-3.99969-1.87942
					c6.0374-3.12857,9.47075-4.84421,17.30667-8.34394c-1.29261-0.56213-1.94784-0.83187-3.27505-1.34785
					c2.4254-1.12554,3.68396-1.69567,6.29679-2.843c4.66377,1.84053,6.90028,2.90127,11.14117,5.26805
					c-2.76153,1.05295-4.09334,1.57915-6.66271,2.62317C105.18686,108.43902,104.57518,108.11511,103.33347,107.48956z"/>
			</g>
			<g>
				<path fill="#FFFFFF" stroke="#231F20" stroke-width="0.6" stroke-miterlimit="10" d="M96.3197,114.88156
					c1.99869,0.67995,2.98798,1.04189,4.94387,1.80845c-1.6488,1.02059-1.79617,1.93546-0.59406,2.81298
					c0.93582,0.68362,1.87263,0.84151,2.87135,0.44062c0.52337-0.21031,0.82981-0.45803,0.90905-0.7378
					c0.07966-0.28125-0.04488-0.67862-0.38514-1.18325c-1.34535-1.91026-1.77516-3.28758-1.07925-4.26875
					c0.69559-0.98071,1.97651-1.86156,3.92583-2.64257c2.5088-1.00576,5.21198-1.55152,8.03423-1.57365
					c2.82204-0.02297,5.25172,0.60622,7.09567,1.92622c2.79597,2.0015,1.9117,4.24889-2.03247,6.49844
					c-2.13454-0.76024-3.20551-1.12055-5.3531-1.80195c1.52737-0.92075,1.80544-1.78502,0.73329-2.54884
					c-0.88975-0.63416-1.93541-0.72475-3.08141-0.29735c-0.51187,0.1901-0.80508,0.40821-0.88474,0.65248
					c-0.07919,0.24278,0.04406,0.61111,0.35755,1.10985c0.867,1.37283,1.30405,2.42622,1.39143,3.11064
					c0.08716,0.68262-0.31912,1.42682-1.17854,2.21604c-0.85893,0.78941-2.12601,1.48869-3.74499,2.09591
					c-2.56043,0.9607-4.96744,1.32225-7.32828,1.14256c-2.36224-0.1798-4.24033-0.86721-5.80502-2.01677
					C92.2557,119.52432,92.35009,117.43014,96.3197,114.88156z"/>
			</g>
		</g>
	</g>
	<g>
		<g>
			<path fill="none" stroke="#231F20" stroke-miterlimit="10" d="M51.51852-8.88889"/>
		</g>
	</g>
	<g>
		<g>
			<path fill="none" stroke="#231F20" stroke-miterlimit="10" d="M143.96297-23.11111"/>
		</g>
	</g>
</g>
</svg>
