<svg id="svg" version="1.1" xmlns="http://www.w3.org/2000/svg" xmlns:xlink="http://www.w3.org/1999/xlink" width="400" height="365.8056580565805" viewBox="0, 0, 400,365.8056580565805"><g id="svgg"><path id="path0" d="M205.657 22.456 C 205.590 22.516,203.487 22.634,200.984 22.717 C 155.537 24.232,109.165 47.672,80.945 83.395 C 80.250 84.274,79.510 85.202,79.299 85.457 C 76.690 88.611,71.067 96.775,68.096 101.722 C 64.115 108.353,60.081 116.269,57.441 122.632 C 56.936 123.850,56.330 125.289,56.096 125.830 C 55.861 126.371,55.052 128.530,54.299 130.627 C 42.489 163.500,41.364 199.064,51.074 232.595 C 52.338 236.959,55.218 245.315,56.331 247.847 C 56.569 248.389,57.129 249.717,57.574 250.800 C 58.534 253.131,64.030 264.378,65.328 266.667 C 66.969 269.560,68.699 272.410,70.331 274.908 C 71.214 276.261,72.052 277.558,72.192 277.790 C 73.317 279.653,78.450 286.691,80.227 288.807 C 80.738 289.416,81.840 290.744,82.674 291.759 C 86.760 296.725,95.030 305.227,99.783 309.348 C 101.344 310.701,102.806 311.983,103.032 312.197 C 105.589 314.614,115.150 321.643,120.418 324.979 C 126.617 328.904,136.578 334.262,141.574 336.359 C 142.386 336.700,144.268 337.495,145.756 338.126 C 150.326 340.063,155.883 342.042,162.239 343.995 C 181.318 349.856,205.585 351.939,227.060 349.559 C 240.998 348.014,254.261 344.766,267.897 339.556 C 269.859 338.807,271.574 338.115,271.710 338.018 C 271.845 337.921,272.620 337.586,273.432 337.274 C 275.075 336.642,285.821 331.388,288.315 329.997 C 290.888 328.562,295.424 325.829,297.414 324.515 L 299.255 323.300 300.908 324.132 C 309.707 328.563,315.298 327.617,326.813 319.746 C 331.253 316.712,331.398 316.345,329.230 313.653 C 329.067 313.450,327.792 311.694,326.397 309.750 C 325.003 307.807,323.364 305.522,322.755 304.674 C 322.146 303.825,321.453 302.869,321.215 302.550 C 320.976 302.230,320.151 301.082,319.381 300.000 C 318.612 298.918,317.919 297.977,317.842 297.909 C 317.764 297.841,316.772 296.458,315.636 294.834 C 314.500 293.210,313.502 291.827,313.418 291.759 C 313.335 291.691,312.274 290.212,311.061 288.472 C 307.444 283.283,307.642 283.327,303.075 286.667 C 291.842 294.883,288.940 300.308,290.600 309.987 L 290.794 311.117 288.878 312.346 C 269.664 324.674,247.535 332.509,225.092 334.930 C 223.130 335.141,221.138 335.370,220.664 335.438 C 216.588 336.024,199.050 335.773,192.866 335.039 C 191.716 334.903,190.387 334.745,189.914 334.689 C 177.557 333.223,160.532 328.655,150.830 324.202 C 150.238 323.930,149.205 323.491,148.534 323.227 C 146.437 322.400,136.799 317.453,133.579 315.551 C 129.592 313.195,124.252 309.791,123.003 308.811 C 122.799 308.651,121.470 307.663,120.049 306.616 C 117.220 304.531,111.772 300.176,110.160 298.713 C 107.101 295.933,105.591 294.472,102.112 290.920 C 97.683 286.399,97.720 286.439,95.961 284.357 C 95.227 283.490,94.508 282.669,94.361 282.534 C 93.960 282.162,91.325 278.849,89.666 276.630 C 88.857 275.547,88.083 274.531,87.947 274.371 C 87.811 274.212,87.312 273.511,86.839 272.814 C 86.365 272.117,85.750 271.252,85.472 270.890 C 79.321 262.900,70.434 244.657,66.279 231.488 C 53.282 190.298,58.984 144.278,81.534 108.364 C 81.789 107.958,82.276 107.183,82.615 106.642 C 85.134 102.628,92.003 93.239,94.136 90.893 C 94.385 90.620,95.250 89.624,96.059 88.679 C 101.695 82.100,110.790 73.539,117.670 68.338 C 118.776 67.502,119.736 66.756,119.803 66.681 C 120.296 66.131,131.077 58.996,133.579 57.562 C 153.200 46.325,172.394 40.240,195.818 37.832 C 199.986 37.403,217.237 37.406,221.525 37.836 C 236.767 39.365,249.112 42.227,262.116 47.246 C 267.838 49.454,275.564 53.002,279.519 55.237 L 280.441 55.758 279.765 56.627 C 279.394 57.106,278.149 58.658,276.999 60.078 C 275.849 61.497,274.576 63.086,274.170 63.608 C 273.764 64.131,273.143 64.894,272.790 65.305 C 272.437 65.716,265.595 74.188,257.586 84.133 C 249.576 94.077,242.880 102.389,242.706 102.602 C 241.033 104.654,236.868 109.838,236.285 110.594 C 235.879 111.120,235.207 111.941,234.792 112.418 C 234.118 113.190,232.258 115.504,230.135 118.211 C 229.729 118.728,228.741 119.935,227.940 120.892 L 226.482 122.632 241.531 122.696 L 256.579 122.759 254.936 125.156 C 253.146 127.765,251.803 129.726,248.831 134.071 C 247.767 135.627,246.327 137.731,245.631 138.745 C 244.934 139.760,241.566 144.686,238.145 149.692 C 234.724 154.699,231.522 159.379,231.030 160.093 C 227.688 164.945,223.575 170.978,222.188 173.063 C 221.288 174.416,220.483 175.578,220.399 175.646 C 220.316 175.713,219.510 176.876,218.608 178.229 C 217.706 179.582,216.550 181.298,216.038 182.042 C 215.526 182.786,214.345 184.502,213.414 185.855 C 209.569 191.443,207.108 195.136,207.180 195.208 C 207.223 195.250,208.384 194.215,209.760 192.907 C 211.137 191.599,213.903 188.979,215.907 187.085 C 217.911 185.191,220.603 182.635,221.891 181.406 C 224.348 179.060,227.500 176.068,231.604 172.185 C 232.953 170.909,235.112 168.859,236.401 167.629 C 238.886 165.260,242.091 162.219,246.118 158.409 C 247.468 157.133,249.626 155.083,250.915 153.853 C 252.205 152.624,254.416 150.521,255.830 149.179 C 257.243 147.838,259.457 145.735,260.750 144.506 C 262.042 143.277,264.200 141.229,265.545 139.955 C 266.889 138.681,269.098 136.587,270.454 135.301 C 271.809 134.016,273.920 132.016,275.143 130.857 C 276.367 129.698,278.475 127.697,279.828 126.411 C 282.170 124.185,284.705 121.777,289.657 117.077 C 290.881 115.915,292.989 113.911,294.342 112.623 C 295.695 111.335,297.300 109.822,297.908 109.261 L 299.013 108.241 284.411 108.241 L 269.808 108.241 270.251 107.565 C 270.494 107.192,271.365 106.106,272.186 105.150 C 273.006 104.195,274.287 102.661,275.031 101.742 C 275.775 100.823,276.588 99.834,276.838 99.544 C 277.087 99.253,277.807 98.369,278.437 97.578 C 279.067 96.787,280.301 95.284,281.181 94.238 C 282.060 93.192,283.389 91.582,284.133 90.660 C 284.877 89.739,286.150 88.181,286.962 87.199 C 287.774 86.217,289.323 84.338,290.406 83.023 C 291.488 81.708,292.800 80.119,293.321 79.492 C 294.890 77.604,295.031 77.431,296.434 75.691 C 297.178 74.769,298.930 72.666,300.329 71.017 C 301.727 69.369,303.941 66.704,305.249 65.095 C 306.556 63.487,308.042 61.661,308.549 61.036 C 311.193 57.786,311.371 58.522,307.183 55.378 C 297.433 48.059,285.714 41.159,275.400 36.664 C 273.776 35.957,272.116 35.231,271.710 35.051 C 258.908 29.391,240.251 24.724,224.600 23.266 C 218.605 22.707,205.980 22.168,205.657 22.456 M336.312 269.547 C 334.958 270.084,323.493 278.414,323.493 278.861 C 323.493 279.014,324.176 280.068,325.010 281.205 C 325.844 282.342,326.790 283.632,327.113 284.071 C 327.782 284.982,327.885 285.013,328.548 284.497 C 328.812 284.291,330.357 283.170,331.980 282.006 C 338.747 277.152,340.462 275.765,340.854 274.829 C 342.039 271.993,339.015 268.476,336.312 269.547 M312.499 272.724 C 310.756 273.623,307.752 275.980,307.080 276.977 C 305.959 278.640,306.416 279.892,309.869 284.621 C 311.071 286.267,312.472 288.186,312.984 288.886 C 313.495 289.587,314.104 290.441,314.337 290.786 C 314.570 291.130,315.756 292.771,316.974 294.432 C 320.071 298.658,322.275 301.699,323.702 303.716 C 325.219 305.860,329.751 312.060,329.886 312.177 C 329.965 312.245,330.573 313.075,331.237 314.022 C 335.176 319.634,336.563 320.002,340.981 316.605 C 345.314 313.275,345.443 311.948,341.882 307.380 C 341.490 306.877,339.318 303.880,338.138 302.214 C 337.467 301.267,336.830 300.381,336.721 300.246 C 336.360 299.795,334.206 296.823,332.978 295.080 C 332.310 294.133,331.702 293.303,331.626 293.235 C 331.550 293.167,331.107 292.558,330.640 291.882 C 330.173 291.205,329.731 290.597,329.656 290.529 C 329.581 290.461,329.139 289.852,328.672 289.176 C 328.205 288.499,327.763 287.891,327.688 287.823 C 327.613 287.755,327.168 287.146,326.699 286.470 C 326.229 285.793,325.754 285.129,325.644 284.994 C 325.533 284.859,323.725 282.368,321.626 279.459 C 315.864 271.475,315.478 271.190,312.499 272.724 M348.897 287.450 C 348.460 287.640,347.962 287.913,347.790 288.056 C 347.619 288.199,346.095 289.272,344.403 290.440 C 342.712 291.607,340.886 292.914,340.344 293.344 C 339.803 293.773,338.669 294.605,337.823 295.191 C 336.017 296.444,336.018 296.441,337.209 298.034 C 337.716 298.712,338.433 299.708,338.804 300.248 C 339.174 300.788,339.740 301.557,340.062 301.956 L 340.648 302.682 341.351 302.222 C 341.737 301.969,342.167 301.665,342.306 301.546 C 342.445 301.428,343.444 300.705,344.526 299.939 C 345.609 299.174,346.550 298.487,346.617 298.413 C 346.685 298.339,347.294 297.894,347.970 297.424 C 348.647 296.955,349.311 296.482,349.446 296.375 C 349.582 296.267,350.427 295.633,351.325 294.966 C 353.868 293.076,354.576 291.378,353.605 289.499 C 352.544 287.448,350.724 286.656,348.897 287.450 M314.760 303.257 C 315.301 304.023,315.828 304.786,315.931 304.952 C 316.066 305.170,315.588 305.370,314.209 305.670 C 313.159 305.898,311.493 306.266,310.507 306.487 L 308.713 306.888 309.154 307.468 C 309.396 307.787,309.879 308.396,310.228 308.821 C 310.577 309.246,311.209 310.106,311.633 310.732 L 312.405 311.870 311.614 312.008 C 311.180 312.084,308.831 312.489,306.396 312.910 C 303.961 313.330,301.877 313.699,301.766 313.731 C 301.655 313.762,301.801 314.090,302.091 314.459 C 302.733 315.274,302.628 315.280,299.841 314.588 C 297.320 313.962,297.405 314.122,298.565 312.175 L 299.466 310.661 299.852 311.296 C 300.064 311.645,300.397 311.931,300.592 311.931 C 301.065 311.931,307.257 309.950,307.257 309.799 C 307.257 309.734,306.664 308.886,305.940 307.915 C 305.215 306.944,304.432 305.853,304.200 305.490 L 303.778 304.829 306.932 303.847 C 314.554 301.473,313.554 301.549,314.760 303.257 " stroke="none" fill="#ec1c34" fill-rule="evenodd"></path><path id="path1" d="M201.599 76.032 C 152.315 80.642,120.975 131.730,139.358 177.491 C 142.708 185.828,146.244 191.496,157.698 206.888 C 166.123 218.209,168.768 222.251,171.664 228.231 L 173.063 231.119 173.225 238.130 C 173.381 244.835,173.509 246.129,174.180 247.748 C 174.607 248.779,172.584 248.726,208.856 248.653 L 242.189 248.585 242.607 247.724 C 243.315 246.267,243.563 243.920,243.714 237.269 L 243.859 230.873 245.906 226.814 C 248.507 221.657,251.477 217.140,257.995 208.429 C 277.787 181.978,282.194 171.671,282.586 150.923 C 282.736 142.955,281.582 132.063,280.609 132.269 C 280.498 132.293,276.779 135.804,272.344 140.072 L 264.281 147.833 264.113 150.854 C 263.288 165.706,257.296 179.565,241.854 202.337 C 236.395 210.387,235.610 211.599,234.222 214.111 C 231.478 219.080,229.453 224.305,228.158 229.766 C 227.677 231.793,227.320 232.770,226.899 233.210 L 226.311 233.825 211.741 233.912 C 195.354 234.009,190.905 233.872,190.162 233.246 C 189.829 232.966,189.381 231.659,188.711 229.012 C 187.481 224.151,186.405 221.238,184.115 216.565 C 182.388 213.041,181.379 211.432,175.116 202.214 C 158.850 178.276,152.995 163.919,152.995 147.970 C 152.995 129.156,160.055 114.797,173.801 105.656 C 192.996 92.889,213.191 90.997,233.397 100.071 L 236.166 101.315 241.853 94.049 C 246.216 88.475,247.461 86.731,247.202 86.561 C 235.426 78.851,216.983 74.593,201.599 76.032 M179.887 254.203 C 177.202 255.176,176.382 256.834,176.389 261.271 C 176.396 265.671,177.105 267.196,179.635 268.253 C 180.820 268.747,235.972 268.841,237.417 268.351 C 242.387 266.665,242.635 256.553,237.761 254.333 C 236.532 253.773,181.414 253.649,179.887 254.203 M183.294 274.064 C 180.119 274.697,179.023 276.658,179.133 281.512 C 179.226 285.614,179.591 286.491,181.729 287.748 L 182.903 288.438 208.097 288.505 C 229.979 288.563,233.460 288.523,234.570 288.201 C 239.517 286.762,240.054 276.994,235.325 274.463 L 234.317 273.924 209.348 273.886 C 195.615 273.865,183.891 273.945,183.294 274.064 M203.175 293.561 C 199.794 295.346,199.285 302.463,202.356 304.995 C 204.317 306.611,211.787 306.873,214.154 305.408 C 218.001 303.028,217.731 295.519,213.724 293.458 C 212.226 292.687,204.691 292.761,203.175 293.561 " stroke="none" fill="#2c2c2c" fill-rule="evenodd"></path><path id="path2" d="" stroke="none" fill="#f02430" fill-rule="evenodd"></path><path id="path3" d="" stroke="none" fill="#f02430" fill-rule="evenodd"></path><path id="path4" d="" stroke="none" fill="#f02430" fill-rule="evenodd"></path></g></svg>